<svg xmlns="http://www.w3.org/2000/svg" xmlns:xlink="http://www.w3.org/1999/xlink" width="981" height="782" contentStyleType="text/css" data-diagram-type="STATE" style="width:981px;height:782px;background:#fafafa" preserveAspectRatio="none" version="1.1" viewBox="0 0 981 782" zoomAndPan="magnify"><?plantuml 1.2026.6?><g><rect style="stroke:none;stroke-width:1" width="981" height="782" x="0" y="0" fill="#FAFAFA"/><g class="title" data-source-line="2"><text x="306.423" y="37.118" fill="#000" font-family="Verdana" font-size="22" font-weight="700" lengthAdjust="spacing" textLength="366.674">权限模型状态迁移 · v0.3.2 → v0.4</text></g><g id="ent0001" class="entity" data-qualified-name="v032" data-source-line="13"><path fill="#FFEBEE" d="M24.5,182.7673 L411.0677,182.7673 A12.5,12.5 0 0 1 423.5677,195.2673 L423.5677,209.782 L12,209.782 L12,195.2673 A12.5,12.5 0 0 1 24.5,182.7673"/><path fill="#FFEBEE" d="M12,209.782 L423.5677,209.782 L423.5677,498.3113 A12.5,12.5 0 0 1 411.0677,510.8113 L24.5,510.8113 A12.5,12.5 0 0 1 12,498.3113 L12,209.782"/><rect style="stroke:#d32f2f;stroke-width:1" width="411.568" height="328.044" x="12" y="182.767" fill="none" rx="12.5" ry="12.5"/><line style="stroke:#d32f2f;stroke-width:1" x1="12" x2="423.568" y1="209.782" y2="209.782"/><text x="171.932" y="201.843" fill="#000" font-family="Verdana" font-size="14" font-weight="700" lengthAdjust="spacing" textLength="91.704">v0.3.2 · 当前</text><g id="ent0002" class="entity" data-qualified-name="v032.install032" data-source-line="14"><rect style="stroke:#000;stroke-width:1" width="143.143" height="50" x="121.07" y="221.782" fill="#FFF" rx="12.5" ry="12.5"/><line style="stroke:#000;stroke-width:1" x1="121.07" x2="264.213" y1="248.797" y2="248.797"/><text x="131.07" y="240.857" fill="#000" font-family="Verdana" font-size="14" font-weight="700" lengthAdjust="spacing" textLength="123.143">install-time 授予</text></g><g id="ent0003" class="entity" data-qualified-name="v032.active032" data-source-line="15"><rect style="stroke:#000;stroke-width:1" width="203.08" height="50" x="91.1" y="340.782" fill="#FFF" rx="12.5" ry="12.5"/><line style="stroke:#000;stroke-width:1" x1="91.1" x2="294.18" y1="367.797" y2="367.797"/><text x="101.1" y="359.857" fill="#000" font-family="Verdana" font-size="14" font-weight="700" lengthAdjust="spacing" textLength="183.08">扩展装完 = 全网 fetch 权限</text></g><g id="ent0004" class="entity" data-qualified-name="v032.cws032" data-source-line="16"><rect style="stroke:#000;stroke-width:1" width="159.289" height="50" x="24" y="445.802" fill="#FFF" rx="12.5" ry="12.5"/><line style="stroke:#000;stroke-width:1" x1="24" x2="183.289" y1="472.817" y2="472.817"/><text x="34" y="464.877" fill="#000" font-family="Verdana" font-size="14" font-weight="700" lengthAdjust="spacing" textLength="139.289">CWS 审核 · 严格路径</text></g><g id="ent0005" class="entity" data-qualified-name="v032.warn032" data-source-line="17"><rect style="stroke:#000;stroke-width:1" width="160" height="54.029" x="201.64" y="443.782" fill="#FFF" rx="12.5" ry="12.5"/><line style="stroke:#000;stroke-width:1" x1="201.64" x2="361.64" y1="487.811" y2="487.811"/><text x="211.64" y="462.857" fill="#000" font-family="Verdana" font-size="14" font-weight="700" lengthAdjust="spacing" textLength="56">用户看到</text><text x="211.64" y="479.872" fill="#000" font-family="Verdana" font-size="14" font-weight="700" lengthAdjust="spacing" textLength="140">『访问所有网站』警告</text></g><g id="lnk12" class="link" data-entity-1="ent0002" data-entity-2="ent0003" data-link-type="dependency" data-source-line="19"><path id="install032-to-active032" fill="none" d="M192.64,272.022 C192.64,292.102 192.64,315.502 192.64,335.572" style="stroke:#000;stroke-width:1"/><polygon fill="#000" points="192.64 340.572 196.64 331.572 192.64 335.572 188.64 331.572 192.64 340.572" style="stroke:#000;stroke-width:1;stroke-linejoin:miter;stroke-miterlimit:10"/><text x="276.604" y="303.852" fill="#000" font-family="Verdana" font-size="13" lengthAdjust="spacing" textLength="39">装扩展</text><text x="193.64" y="319.651" fill="#000" font-family="Verdana" font-size="13" lengthAdjust="spacing" textLength="204.928">(host_permissions=&lt;all_urls&gt;)</text></g><g id="lnk13" class="link" data-entity-1="ent0003" data-entity-2="ent0004" data-link-type="dependency" data-source-line="20"><path id="active032-to-cws032" fill="none" d="M171.55,391.192 C157.37,407.622 142.0088,425.3884 127.8488,441.7784" style="stroke:#000;stroke-width:1"/><polygon fill="#000" points="124.58 445.562 133.491 441.367 127.849 441.778 127.437 436.137 124.58 445.562" style="stroke:#000;stroke-width:1;stroke-linejoin:miter;stroke-miterlimit:10"/><text x="157.12" y="422.852" fill="#000" font-family="Verdana" font-size="13" lengthAdjust="spacing" textLength="52">上架审核</text></g><g id="lnk14" class="link" data-entity-1="ent0003" data-entity-2="ent0005" data-link-type="dependency" data-source-line="21"><path id="active032-to-warn032" fill="none" d="M213.74,391.192 C227.31,406.902 241.6715,423.5282 255.5615,439.6082" style="stroke:#000;stroke-width:1"/><polygon fill="#000" points="258.83 443.392 255.974 433.966 255.561 439.608 249.92 439.196 258.83 443.392" style="stroke:#000;stroke-width:1;stroke-linejoin:miter;stroke-miterlimit:10"/><text x="243.47" y="422.852" fill="#000" font-family="Verdana" font-size="13" lengthAdjust="spacing" textLength="52">用户体验</text></g></g><g id="ent0006" class="entity" data-qualified-name="v04" data-source-line="24"><path fill="#E8F5E9" d="M471.55,59.7373 L954.02,59.7373 A12.5,12.5 0 0 1 966.52,72.2373 L966.52,86.752 L459.05,86.752 L459.05,72.2373 A12.5,12.5 0 0 1 471.55,59.7373"/><path fill="#E8F5E9" d="M459.05,86.752 L966.52,86.752 L966.52,621.342 A12.5,12.5 0 0 1 954.02,633.842 L471.55,633.842 A12.5,12.5 0 0 1 459.05,621.342 L459.05,86.752"/><rect style="stroke:#2e7d32;stroke-width:1" width="507.47" height="574.105" x="459.05" y="59.737" fill="none" rx="12.5" ry="12.5"/><line style="stroke:#2e7d32;stroke-width:1" x1="459.05" x2="966.52" y1="86.752" y2="86.752"/><text x="674.439" y="78.813" fill="#000" font-family="Verdana" font-size="14" font-weight="700" lengthAdjust="spacing" textLength="76.692">v0.4 · 目标</text><g id="ent0007" class="entity" data-qualified-name="v04.install04" data-source-line="25"><rect style="stroke:#000;stroke-width:1" width="147.217" height="54.029" x="601.25" y="98.752" fill="#FFF" rx="12.5" ry="12.5"/><line style="stroke:#000;stroke-width:1" x1="601.25" x2="748.467" y1="142.781" y2="142.781"/><text x="611.25" y="117.827" fill="#000" font-family="Verdana" font-size="14" font-weight="700" lengthAdjust="spacing" textLength="123.143">install-time 授予</text><text x="611.25" y="134.842" fill="#000" font-family="Verdana" font-size="14" font-weight="700" lengthAdjust="spacing" textLength="127.217">(硬编码的引擎域名)</text></g><g id="ent0008" class="entity" data-qualified-name="v04.stored04" data-source-line="26"><rect style="stroke:#000;stroke-width:1" width="189.278" height="54.029" x="580.21" y="221.782" fill="#FFF" rx="12.5" ry="12.5"/><line style="stroke:#000;stroke-width:1" x1="580.21" x2="769.488" y1="265.811" y2="265.811"/><text x="590.21" y="240.857" fill="#000" font-family="Verdana" font-size="14" font-weight="700" lengthAdjust="spacing" textLength="142.427">chrome.storage 里</text><text x="590.21" y="257.872" fill="#000" font-family="Verdana" font-size="14" font-weight="700" lengthAdjust="spacing" textLength="169.278">有 openai-compat 配置</text></g><g id="ent0009" class="entity" data-qualified-name="v04.runtime04" data-source-line="27"><rect style="stroke:#000;stroke-width:1" width="145.761" height="54.029" x="597.97" y="344.812" fill="#FFF" rx="12.5" ry="12.5"/><line style="stroke:#000;stroke-width:1" x1="597.97" x2="743.731" y1="388.841" y2="388.841"/><text x="607.97" y="363.887" fill="#000" font-family="Verdana" font-size="14" font-weight="700" lengthAdjust="spacing" textLength="98">运行时按需请求</text><text x="607.97" y="380.902" fill="#000" font-family="Verdana" font-size="14" font-weight="700" lengthAdjust="spacing" textLength="125.761">(baseUrl origin)</text></g><g id="ent0010" class="entity" data-qualified-name="v04.active04" data-source-line="28"><rect style="stroke:#000;stroke-width:1" width="160.629" height="50" x="590.54" y="467.842" fill="#FFF" rx="12.5" ry="12.5"/><line style="stroke:#000;stroke-width:1" x1="590.54" x2="751.169" y1="494.857" y2="494.857"/><text x="600.54" y="486.917" fill="#000" font-family="Verdana" font-size="14" font-weight="700" lengthAdjust="spacing" textLength="140.629">翻译成功 · 权限最小化</text></g><g id="ent0011" class="entity" data-qualified-name="v04.revoke04" data-source-line="29"><rect style="stroke:#000;stroke-width:1" width="146" height="50" x="665.85" y="570.842" fill="#FFF" rx="12.5" ry="12.5"/><line style="stroke:#000;stroke-width:1" x1="665.85" x2="811.85" y1="597.857" y2="597.857"/><text x="675.85" y="589.917" fill="#000" font-family="Verdana" font-size="14" font-weight="700" lengthAdjust="spacing" textLength="126">用户可撤销单个域名</text></g><g id="lnk15" class="link" data-entity-1="ent0007" data-entity-2="ent0008" data-link-type="dependency" data-source-line="31"><path id="install04-to-stored04" fill="none" d="M674.85,153.032 C674.85,173.332 674.85,196.302 674.85,216.592" style="stroke:#000;stroke-width:1"/><polygon fill="#000" points="674.85 221.592 678.85 212.592 674.85 216.592 670.85 212.592 674.85 221.592" style="stroke:#000;stroke-width:1;stroke-linejoin:miter;stroke-miterlimit:10"/><text x="688.964" y="184.852" fill="#000" font-family="Verdana" font-size="13" lengthAdjust="spacing" textLength="92.625">用户填 baseUrl</text><text x="675.85" y="200.651" fill="#000" font-family="Verdana" font-size="13" lengthAdjust="spacing" textLength="118.853">+ apiKey + model</text></g><g id="lnk16" class="link" data-entity-1="ent0008" data-entity-2="ent0009" data-link-type="dependency" data-source-line="32"><path id="stored04-to-runtime04" fill="none" d="M579.9,263.222 C544.99,270.262 511.38,280.292 500.85,293.812 C470.05,333.382 533.6739,352.4553 592.7239,361.9853" style="stroke:#000;stroke-width:1"/><polygon fill="#000" points="597.66 362.782 589.412 357.399 592.724 361.985 588.138 365.297 597.66 362.782" style="stroke:#000;stroke-width:1;stroke-linejoin:miter;stroke-miterlimit:10"/><text x="541.872" y="307.882" fill="#000" font-family="Verdana" font-size="13" lengthAdjust="spacing" textLength="70.008">首次翻译 or</text><text x="506.42" y="323.681" fill="#000" font-family="Verdana" font-size="13" lengthAdjust="spacing" textLength="145.482">Options 页『授权』按钮</text></g><g id="lnk17" class="link" data-entity-1="ent0009" data-entity-2="ent0010" data-link-type="dependency" data-source-line="33"><path id="runtime04-to-active04" fill="none" d="M670.85,399.242 C670.85,419.652 670.85,442.672 670.85,462.532" style="stroke:#000;stroke-width:1"/><polygon fill="#000" points="670.85 467.532 674.85 458.532 670.85 462.532 666.85 458.532 670.85 467.532" style="stroke:#000;stroke-width:1;stroke-linejoin:miter;stroke-miterlimit:10"/><text x="671.85" y="430.912" fill="#000" font-family="Verdana" font-size="13" lengthAdjust="spacing" textLength="65">用户在弹窗</text><text x="671.85" y="446.711" fill="#000" font-family="Verdana" font-size="13" lengthAdjust="spacing" textLength="65">点『允许』</text></g><g id="lnk18" class="link" data-entity-1="ent0009" data-entity-2="ent0008" data-link-type="dependency" data-source-line="34"><path id="runtime04-to-stored04" fill="none" d="M671.72,344.622 C672.39,324.332 673.1551,301.3592 673.8251,281.0592" style="stroke:#000;stroke-width:1"/><polygon fill="#000" points="673.99 276.062 669.695 284.925 673.825 281.059 677.691 285.189 673.99 276.062" style="stroke:#000;stroke-width:1;stroke-linejoin:miter;stroke-miterlimit:10"/><text x="705.957" y="307.882" fill="#000" font-family="Verdana" font-size="13" lengthAdjust="spacing" textLength="52">用户拒绝</text><text x="674.33" y="323.681" fill="#000" font-family="Verdana" font-size="13" lengthAdjust="spacing" textLength="115.254">(fallback 提示 UX)</text></g><g id="lnk19" class="link" data-entity-1="ent0010" data-entity-2="ent0011" data-link-type="dependency" data-source-line="35"><path id="active04-to-revoke04" fill="none" d="M666.18,518.192 C665.26,529.412 666.01,542.492 671.85,552.842 C675.7,559.652 677.2773,562.3716 683.4273,567.3616" style="stroke:#000;stroke-width:1"/><polygon fill="#000" points="687.31 570.512 682.841 561.735 683.427 567.362 677.801 567.947 687.31 570.512" style="stroke:#000;stroke-width:1;stroke-linejoin:miter;stroke-miterlimit:10"/><text x="672.85" y="549.912" fill="#000" font-family="Verdana" font-size="13" lengthAdjust="spacing" textLength="119.482">Options 页『撤销』</text></g><g id="lnk20" class="link" data-entity-1="ent0011" data-entity-2="ent0008" data-link-type="dependency" data-source-line="36"><path id="revoke04-to-stored04" fill="none" d="M779.31,570.432 C784.78,565.332 789.62,559.452 792.85,552.842 C843.43,449.422 858.51,388.382 792.85,293.812 C786.81,285.102 783.0505,280.7611 774.0705,275.1511" style="stroke:#000;stroke-width:1"/><polygon fill="#000" points="769.83 272.502 775.344 280.663 774.071 275.151 779.582 273.878 769.83 272.502" style="stroke:#000;stroke-width:1;stroke-linejoin:miter;stroke-miterlimit:10"/><text x="844.02" y="430.912" fill="#000" font-family="Verdana" font-size="13" lengthAdjust="spacing" textLength="91">撤销后配置仍在</text><text x="837.52" y="446.711" fill="#000" font-family="Verdana" font-size="13" lengthAdjust="spacing" textLength="104">下次翻译再弹权限</text></g></g><g id="ent0022" class="entity" data-qualified-name="GMN21" data-source-line="40"><path fill="#FFF" d="M102.55,693.8373 L102.55,767.0346 A0,0 0 0 0 102.55,767.0346 L333.01,767.0346 A0,0 0 0 0 333.01,767.0346 L333.01,703.8373 L323.01,693.8373 L221.78,693.8373 L217.78,511.3073 L213.78,693.8373 L102.55,693.8373 A0,0 0 0 0 102.55,693.8373" style="stroke:#000;stroke-width:1"/><path fill="#FFF" d="M323.01,693.8373 L323.01,703.8373 L333.01,703.8373 L323.01,693.8373" style="stroke:#000;stroke-width:1"/><text x="108.55" y="711.907" fill="#000" font-family="Verdana" font-size="13" font-weight="700" lengthAdjust="spacing" textLength="209.46">问题（Gemini review · #464）</text><text x="108.55" y="727.706" fill="#000" font-family="Verdana" font-size="13" lengthAdjust="spacing" textLength="208.698">・ &lt;all_urls&gt; 触发 CWS 加严审核</text><text x="108.55" y="743.506" fill="#000" font-family="Verdana" font-size="13" lengthAdjust="spacing" textLength="160.57">・ 权限过宽，安全审计吃亏</text><text x="108.55" y="759.305" fill="#000" font-family="Verdana" font-size="13" lengthAdjust="spacing" textLength="160.57">・ 用户装扩展看警告易紧张</text></g><g id="ent0025" class="entity" data-qualified-name="GMN24" data-source-line="47"><path fill="#FFF" d="M576.5,693.8373 L576.5,767.0346 A0,0 0 0 0 576.5,767.0346 L849.0703,767.0346 A0,0 0 0 0 849.0703,767.0346 L849.0703,703.8373 L839.0703,693.8373 L716.78,693.8373 L712.78,634.1173 L708.78,693.8373 L576.5,693.8373 A0,0 0 0 0 576.5,693.8373" style="stroke:#000;stroke-width:1"/><path fill="#FFF" d="M839.0703,693.8373 L839.0703,703.8373 L849.0703,703.8373 L839.0703,693.8373" style="stroke:#000;stroke-width:1"/><text x="582.5" y="711.907" fill="#000" font-family="Verdana" font-size="13" font-weight="700" lengthAdjust="spacing" textLength="26">收益</text><text x="582.5" y="727.706" fill="#000" font-family="Verdana" font-size="13" lengthAdjust="spacing" textLength="143.958">・ CWS 审核走标准路径</text><text x="582.5" y="743.506" fill="#000" font-family="Verdana" font-size="13" lengthAdjust="spacing" textLength="95.57">・ 权限最小化（</text><text x="678.07" y="743.506" fill="#000" font-family="Verdana" font-size="13" font-weight="700" lengthAdjust="spacing" textLength="143">只授权用户实际用的域名</text><text x="821.07" y="743.506" fill="#000" font-family="Verdana" font-size="13" lengthAdjust="spacing" textLength="13">）</text><text x="582.5" y="759.305" fill="#000" font-family="Verdana" font-size="13" lengthAdjust="spacing" textLength="173.57">・ 用户对信任模型有完全控制</text></g><?plantuml-src VLLDJnjN5DtxLxo6JQC86XcdRIB7KfFQNNJHHHIr2qlHs7x02FkDDJE0eggI2J7OnbzyXyO1kqs1adHCfCOORDTIVqgPzsPcnL_8VJCJUmnHOJD2vvnxphttNJvJPt0AetHI48bF5TKaHkpLahLRPKSDkhTg55eiisZs5ut33lht5CtVdfYSyAF_bjVvPy3dKsP5aXPa8OLYGdnsMfRcIEAXb9HaD1RvXlzw48egg1Zzx4FemIWs68pFoJ8cQYY4W1S9FmY7EKgI4rY-Zh1_nhwTz4VyaK-9gO8yZLtaMFZho9tmtQjgNeWDyuU_0a60HIIYFbAVGXzYKZBX-mKYshPlkD6X2RItGVEb6qXGe0cJVkGrnzEv1970Hp8vhehGO5REwUSvc-F-_RPTpiMo_9_qtPRvUvPgHNGVqUoHqLj3KrYDpxZpiAb2N1NdyGZpuO-F4DKQhDxcrlJs7wpUDK-Rz9_dDYE-e8p0ZSqZbZirQgiqTn8b5vcogVMj7OtbCwoMXvh6czsBJCNywu2k5Mo11K4cN04aXiRH-7XeQ0RTG-3SYH0bdyz8YleaZUMKg2YYH9JxGI0zcPEJIkWcg0nfNCJn1mfwky3sMawIQoZN1C0S_tflmpekZWudmFCRBpLMNt574q2UGV__OC2sqNXhTBUD-gBnwtFQtM8RPRg_JwkbcoD32mnbuZEobC8JYYh9mZH6raenIg29I4fZ8eZZSIcL5bHaPKj6JxCrE18dl19clsesYcodnOfvgvOncwVitJFm4XCK_5XE8aaMfqNYE93d23VifHlzZjbSOxagBUppzExBhMNeIOKMjxqh4xYw0hJIPEklhSqCBMtfxMCdgrC8pqkpdE4PUS0UmyS0WpdGnXlaUesIMqX8Yz_Zf-WMIaa9dBGhkWJE7WG0kdMmpTus7F-GCahG3scLBmko6kzXAs4g40OsaJTcNGEf8TkpUnudjIFQFJEETwB4U7O62ZIxQ6fjKBZ6lPQ2hQuRdLVGzYc8oiyOOfMgyVeSFVx9ix1k2BSvGBxYs6wcM-yZw4evj-7LihCKUgS4jgD4RwyEca6NIv336IJVRoAf_1AfgfH2qfHzRw10C1Q2HslzzkAoc_iEfqGYyfeYNk1RC1RuCd3PpGU_Y8K0Uh7KGSC7YCp30rfPG_RLADJXN0nU70SwTSt-2jLwbzqYrV9mYG1XQWrQNTBFAoxEwTlWqSCvSIu6Ux5X_7r8ktKV9Wd4lNyYGS09m3PRnik2n-NmafdlJ-0LqvLbvv2Dc1jiDqG75LevTdR5NGDjpzhDmZT_nFPAymBGZH7Zj7ccznjwf-FyauD72sSNahBo8SsrXju_0000?></g></svg>