<svg xmlns="http://www.w3.org/2000/svg" xmlns:xlink="http://www.w3.org/1999/xlink" contentStyleType="text/css" data-diagram-type="STATE" height="782px" preserveAspectRatio="none" style="width:981px;height:782px;background:#FAFAFA;" version="1.1" viewBox="0 0 981 782" width="981px" zoomAndPan="magnify"><?plantuml 1.2026.6?><defs/><g><rect fill="#FAFAFA" height="782" style="stroke:none;stroke-width:1;" width="981" x="0" y="0"/><g class="title" data-source-line="2"><text fill="#000000" font-family="Verdana" font-size="22" font-weight="700" lengthAdjust="spacing" textLength="366.6738" x="306.4231" y="37.1182">&#26435;&#38480;&#27169;&#22411;&#29366;&#24577;&#36801;&#31227; &#183; v0.3.2 &#8594; v0.4</text></g><g class="entity" data-qualified-name="v032" data-source-line="13" id="ent0001"><path d="M24.5,182.7673 L411.0677,182.7673 A12.5,12.5 0 0 1 423.5677,195.2673 L423.5677,209.782 L12,209.782 L12,195.2673 A12.5,12.5 0 0 1 24.5,182.7673" fill="#FFEBEE"/><path d="M12,209.782 L423.5677,209.782 L423.5677,498.3113 A12.5,12.5 0 0 1 411.0677,510.8113 L24.5,510.8113 A12.5,12.5 0 0 1 12,498.3113 L12,209.782" fill="#FFEBEE"/><rect fill="none" height="328.0439" rx="12.5" ry="12.5" style="stroke:#D32F2F;stroke-width:1;" width="411.5677" x="12" y="182.7673"/><line style="stroke:#D32F2F;stroke-width:1;" x1="12" x2="423.5677" y1="209.782" y2="209.782"/><text fill="#000000" font-family="Verdana" font-size="14" font-weight="700" lengthAdjust="spacing" textLength="91.7041" x="171.9318" y="201.8425">v0.3.2 &#183; &#24403;&#21069;</text><g class="entity" data-qualified-name="v032.install032" data-source-line="14" id="ent0002"><rect fill="#FFFFFF" height="50" rx="12.5" ry="12.5" style="stroke:#000000;stroke-width:1;" width="143.1426" x="121.07" y="221.782"/><line style="stroke:#000000;stroke-width:1;" x1="121.07" x2="264.2126" y1="248.7966" y2="248.7966"/><text fill="#000000" font-family="Verdana" font-size="14" font-weight="700" lengthAdjust="spacing" textLength="123.1426" x="131.07" y="240.8571">install-time &#25480;&#20104;</text></g><g class="entity" data-qualified-name="v032.active032" data-source-line="15" id="ent0003"><rect fill="#FFFFFF" height="50" rx="12.5" ry="12.5" style="stroke:#000000;stroke-width:1;" width="203.0801" x="91.1" y="340.782"/><line style="stroke:#000000;stroke-width:1;" x1="91.1" x2="294.1801" y1="367.7966" y2="367.7966"/><text fill="#000000" font-family="Verdana" font-size="14" font-weight="700" lengthAdjust="spacing" textLength="183.0801" x="101.1" y="359.8571">&#25193;&#23637;&#35013;&#23436; = &#20840;&#32593; fetch &#26435;&#38480;</text></g><g class="entity" data-qualified-name="v032.cws032" data-source-line="16" id="ent0004"><rect fill="#FFFFFF" height="50" rx="12.5" ry="12.5" style="stroke:#000000;stroke-width:1;" width="159.2891" x="24" y="445.802"/><line style="stroke:#000000;stroke-width:1;" x1="24" x2="183.2891" y1="472.8166" y2="472.8166"/><text fill="#000000" font-family="Verdana" font-size="14" font-weight="700" lengthAdjust="spacing" textLength="139.2891" x="34" y="464.8771">CWS &#23457;&#26680; &#183; &#20005;&#26684;&#36335;&#24452;</text></g><g class="entity" data-qualified-name="v032.warn032" data-source-line="17" id="ent0005"><rect fill="#FFFFFF" height="54.0293" rx="12.5" ry="12.5" style="stroke:#000000;stroke-width:1;" width="160" x="201.64" y="443.782"/><line style="stroke:#000000;stroke-width:1;" x1="201.64" x2="361.64" y1="487.8113" y2="487.8113"/><text fill="#000000" font-family="Verdana" font-size="14" font-weight="700" lengthAdjust="spacing" textLength="56" x="211.64" y="462.8571">&#29992;&#25143;&#30475;&#21040;</text><text fill="#000000" font-family="Verdana" font-size="14" font-weight="700" lengthAdjust="spacing" textLength="140" x="211.64" y="479.8718">&#12302;&#35775;&#38382;&#25152;&#26377;&#32593;&#31449;&#12303;&#35686;&#21578;</text></g><!--link install032 to active032--><g class="link" data-entity-1="ent0002" data-entity-2="ent0003" data-link-type="dependency" data-source-line="19" id="lnk12"><path d="M192.64,272.022 C192.64,292.102 192.64,315.502 192.64,335.572" fill="none" id="install032-to-active032" style="stroke:#000000;stroke-width:1;"/><polygon fill="#000000" points="192.64,340.572,196.64,331.572,192.64,335.572,188.64,331.572,192.64,340.572" style="stroke:#000000;stroke-width:1;stroke-linejoin:miter;stroke-miterlimit:10;"/><text fill="#000000" font-family="Verdana" font-size="13" lengthAdjust="spacing" textLength="39" x="276.6039" y="303.8518">&#35013;&#25193;&#23637;</text><text fill="#000000" font-family="Verdana" font-size="13" lengthAdjust="spacing" textLength="204.9277" x="193.64" y="319.6511">(host_permissions=&lt;all_urls&gt;)</text></g><!--link active032 to cws032--><g class="link" data-entity-1="ent0003" data-entity-2="ent0004" data-link-type="dependency" data-source-line="20" id="lnk13"><path d="M171.55,391.192 C157.37,407.622 142.0088,425.3884 127.8488,441.7784" fill="none" id="active032-to-cws032" style="stroke:#000000;stroke-width:1;"/><polygon fill="#000000" points="124.58,445.562,133.4906,441.3666,127.8488,441.7784,127.4369,436.1366,124.58,445.562" style="stroke:#000000;stroke-width:1;stroke-linejoin:miter;stroke-miterlimit:10;"/><text fill="#000000" font-family="Verdana" font-size="13" lengthAdjust="spacing" textLength="52" x="157.12" y="422.8518">&#19978;&#26550;&#23457;&#26680;</text></g><!--link active032 to warn032--><g class="link" data-entity-1="ent0003" data-entity-2="ent0005" data-link-type="dependency" data-source-line="21" id="lnk14"><path d="M213.74,391.192 C227.31,406.902 241.6715,423.5282 255.5615,439.6082" fill="none" id="active032-to-warn032" style="stroke:#000000;stroke-width:1;"/><polygon fill="#000000" points="258.83,443.392,255.9738,433.9663,255.5615,439.6082,249.9197,439.1959,258.83,443.392" style="stroke:#000000;stroke-width:1;stroke-linejoin:miter;stroke-miterlimit:10;"/><text fill="#000000" font-family="Verdana" font-size="13" lengthAdjust="spacing" textLength="52" x="243.47" y="422.8518">&#29992;&#25143;&#20307;&#39564;</text></g></g><g class="entity" data-qualified-name="v04" data-source-line="24" id="ent0006"><path d="M471.55,59.7373 L954.02,59.7373 A12.5,12.5 0 0 1 966.52,72.2373 L966.52,86.752 L459.05,86.752 L459.05,72.2373 A12.5,12.5 0 0 1 471.55,59.7373" fill="#E8F5E9"/><path d="M459.05,86.752 L966.52,86.752 L966.52,621.342 A12.5,12.5 0 0 1 954.02,633.842 L471.55,633.842 A12.5,12.5 0 0 1 459.05,621.342 L459.05,86.752" fill="#E8F5E9"/><rect fill="none" height="574.1046" rx="12.5" ry="12.5" style="stroke:#2E7D32;stroke-width:1;" width="507.47" x="459.05" y="59.7373"/><line style="stroke:#2E7D32;stroke-width:1;" x1="459.05" x2="966.52" y1="86.752" y2="86.752"/><text fill="#000000" font-family="Verdana" font-size="14" font-weight="700" lengthAdjust="spacing" textLength="76.6924" x="674.4388" y="78.8125">v0.4 &#183; &#30446;&#26631;</text><g class="entity" data-qualified-name="v04.install04" data-source-line="25" id="ent0007"><rect fill="#FFFFFF" height="54.0293" rx="12.5" ry="12.5" style="stroke:#000000;stroke-width:1;" width="147.2168" x="601.25" y="98.752"/><line style="stroke:#000000;stroke-width:1;" x1="601.25" x2="748.4668" y1="142.7813" y2="142.7813"/><text fill="#000000" font-family="Verdana" font-size="14" font-weight="700" lengthAdjust="spacing" textLength="123.1426" x="611.25" y="117.8271">install-time &#25480;&#20104;</text><text fill="#000000" font-family="Verdana" font-size="14" font-weight="700" lengthAdjust="spacing" textLength="127.2168" x="611.25" y="134.8418">(&#30828;&#32534;&#30721;&#30340;&#24341;&#25806;&#22495;&#21517;)</text></g><g class="entity" data-qualified-name="v04.stored04" data-source-line="26" id="ent0008"><rect fill="#FFFFFF" height="54.0293" rx="12.5" ry="12.5" style="stroke:#000000;stroke-width:1;" width="189.2783" x="580.21" y="221.782"/><line style="stroke:#000000;stroke-width:1;" x1="580.21" x2="769.4883" y1="265.8113" y2="265.8113"/><text fill="#000000" font-family="Verdana" font-size="14" font-weight="700" lengthAdjust="spacing" textLength="142.4268" x="590.21" y="240.8571">chrome.storage &#37324;</text><text fill="#000000" font-family="Verdana" font-size="14" font-weight="700" lengthAdjust="spacing" textLength="169.2783" x="590.21" y="257.8718">&#26377; openai-compat &#37197;&#32622;</text></g><g class="entity" data-qualified-name="v04.runtime04" data-source-line="27" id="ent0009"><rect fill="#FFFFFF" height="54.0293" rx="12.5" ry="12.5" style="stroke:#000000;stroke-width:1;" width="145.7607" x="597.97" y="344.812"/><line style="stroke:#000000;stroke-width:1;" x1="597.97" x2="743.7307" y1="388.8413" y2="388.8413"/><text fill="#000000" font-family="Verdana" font-size="14" font-weight="700" lengthAdjust="spacing" textLength="98" x="607.97" y="363.8871">&#36816;&#34892;&#26102;&#25353;&#38656;&#35831;&#27714;</text><text fill="#000000" font-family="Verdana" font-size="14" font-weight="700" lengthAdjust="spacing" textLength="125.7607" x="607.97" y="380.9018">(baseUrl origin)</text></g><g class="entity" data-qualified-name="v04.active04" data-source-line="28" id="ent0010"><rect fill="#FFFFFF" height="50" rx="12.5" ry="12.5" style="stroke:#000000;stroke-width:1;" width="160.6289" x="590.54" y="467.842"/><line style="stroke:#000000;stroke-width:1;" x1="590.54" x2="751.1689" y1="494.8566" y2="494.8566"/><text fill="#000000" font-family="Verdana" font-size="14" font-weight="700" lengthAdjust="spacing" textLength="140.6289" x="600.54" y="486.9171">&#32763;&#35793;&#25104;&#21151; &#183; &#26435;&#38480;&#26368;&#23567;&#21270;</text></g><g class="entity" data-qualified-name="v04.revoke04" data-source-line="29" id="ent0011"><rect fill="#FFFFFF" height="50" rx="12.5" ry="12.5" style="stroke:#000000;stroke-width:1;" width="146" x="665.85" y="570.842"/><line style="stroke:#000000;stroke-width:1;" x1="665.85" x2="811.85" y1="597.8566" y2="597.8566"/><text fill="#000000" font-family="Verdana" font-size="14" font-weight="700" lengthAdjust="spacing" textLength="126" x="675.85" y="589.9171">&#29992;&#25143;&#21487;&#25764;&#38144;&#21333;&#20010;&#22495;&#21517;</text></g><!--link install04 to stored04--><g class="link" data-entity-1="ent0007" data-entity-2="ent0008" data-link-type="dependency" data-source-line="31" id="lnk15"><path d="M674.85,153.032 C674.85,173.332 674.85,196.302 674.85,216.592" fill="none" id="install04-to-stored04" style="stroke:#000000;stroke-width:1;"/><polygon fill="#000000" points="674.85,221.592,678.85,212.592,674.85,216.592,670.85,212.592,674.85,221.592" style="stroke:#000000;stroke-width:1;stroke-linejoin:miter;stroke-miterlimit:10;"/><text fill="#000000" font-family="Verdana" font-size="13" lengthAdjust="spacing" textLength="92.625" x="688.9643" y="184.8518">&#29992;&#25143;&#22635; baseUrl</text><text fill="#000000" font-family="Verdana" font-size="13" lengthAdjust="spacing" textLength="118.8535" x="675.85" y="200.6511">+ apiKey + model</text></g><!--link stored04 to runtime04--><g class="link" data-entity-1="ent0008" data-entity-2="ent0009" data-link-type="dependency" data-source-line="32" id="lnk16"><path d="M579.9,263.222 C544.99,270.262 511.38,280.292 500.85,293.812 C470.05,333.382 533.6739,352.4553 592.7239,361.9853" fill="none" id="stored04-to-runtime04" style="stroke:#000000;stroke-width:1;"/><polygon fill="#000000" points="597.66,362.782,589.4123,357.3991,592.7239,361.9853,588.1377,365.2969,597.66,362.782" style="stroke:#000000;stroke-width:1;stroke-linejoin:miter;stroke-miterlimit:10;"/><text fill="#000000" font-family="Verdana" font-size="13" lengthAdjust="spacing" textLength="70.0083" x="541.872" y="307.8818">&#39318;&#27425;&#32763;&#35793; or</text><text fill="#000000" font-family="Verdana" font-size="13" lengthAdjust="spacing" textLength="145.4819" x="506.4203" y="323.6811">Options &#39029;&#12302;&#25480;&#26435;&#12303;&#25353;&#38062;</text></g><!--link runtime04 to active04--><g class="link" data-entity-1="ent0009" data-entity-2="ent0010" data-link-type="dependency" data-source-line="33" id="lnk17"><path d="M670.85,399.242 C670.85,419.652 670.85,442.672 670.85,462.532" fill="none" id="runtime04-to-active04" style="stroke:#000000;stroke-width:1;"/><polygon fill="#000000" points="670.85,467.532,674.85,458.532,670.85,462.532,666.85,458.532,670.85,467.532" style="stroke:#000000;stroke-width:1;stroke-linejoin:miter;stroke-miterlimit:10;"/><text fill="#000000" font-family="Verdana" font-size="13" lengthAdjust="spacing" textLength="65" x="671.85" y="430.9118">&#29992;&#25143;&#22312;&#24377;&#31383;</text><text fill="#000000" font-family="Verdana" font-size="13" lengthAdjust="spacing" textLength="65" x="671.85" y="446.7111">&#28857;&#12302;&#20801;&#35768;&#12303;</text></g><!--link runtime04 to stored04--><g class="link" data-entity-1="ent0009" data-entity-2="ent0008" data-link-type="dependency" data-source-line="34" id="lnk18"><path d="M671.72,344.622 C672.39,324.332 673.1551,301.3592 673.8251,281.0592" fill="none" id="runtime04-to-stored04" style="stroke:#000000;stroke-width:1;"/><polygon fill="#000000" points="673.99,276.062,669.6953,284.9251,673.8251,281.0592,677.6909,285.189,673.99,276.062" style="stroke:#000000;stroke-width:1;stroke-linejoin:miter;stroke-miterlimit:10;"/><text fill="#000000" font-family="Verdana" font-size="13" lengthAdjust="spacing" textLength="52" x="705.9572" y="307.8818">&#29992;&#25143;&#25298;&#32477;</text><text fill="#000000" font-family="Verdana" font-size="13" lengthAdjust="spacing" textLength="115.2544" x="674.33" y="323.6811">(fallback &#25552;&#31034; UX)</text></g><!--link active04 to revoke04--><g class="link" data-entity-1="ent0010" data-entity-2="ent0011" data-link-type="dependency" data-source-line="35" id="lnk19"><path d="M666.18,518.192 C665.26,529.412 666.01,542.492 671.85,552.842 C675.7,559.652 677.2773,562.3716 683.4273,567.3616" fill="none" id="active04-to-revoke04" style="stroke:#000000;stroke-width:1;"/><polygon fill="#000000" points="687.31,570.512,682.8414,561.7352,683.4273,567.3616,677.8009,567.9475,687.31,570.512" style="stroke:#000000;stroke-width:1;stroke-linejoin:miter;stroke-miterlimit:10;"/><text fill="#000000" font-family="Verdana" font-size="13" lengthAdjust="spacing" textLength="119.4819" x="672.85" y="549.9118">Options &#39029;&#12302;&#25764;&#38144;&#12303;</text></g><!--link revoke04 to stored04--><g class="link" data-entity-1="ent0011" data-entity-2="ent0008" data-link-type="dependency" data-source-line="36" id="lnk20"><path d="M779.31,570.432 C784.78,565.332 789.62,559.452 792.85,552.842 C843.43,449.422 858.51,388.382 792.85,293.812 C786.81,285.102 783.0505,280.7611 774.0705,275.1511" fill="none" id="revoke04-to-stored04" style="stroke:#000000;stroke-width:1;"/><polygon fill="#000000" points="769.83,272.502,775.3436,280.6628,774.0705,275.1511,779.5823,273.878,769.83,272.502" style="stroke:#000000;stroke-width:1;stroke-linejoin:miter;stroke-miterlimit:10;"/><text fill="#000000" font-family="Verdana" font-size="13" lengthAdjust="spacing" textLength="91" x="844.02" y="430.9118">&#25764;&#38144;&#21518;&#37197;&#32622;&#20173;&#22312;</text><text fill="#000000" font-family="Verdana" font-size="13" lengthAdjust="spacing" textLength="104" x="837.52" y="446.7111">&#19979;&#27425;&#32763;&#35793;&#20877;&#24377;&#26435;&#38480;</text></g></g><g class="entity" data-qualified-name="GMN21" data-source-line="40" id="ent0022"><path d="M102.55,693.8373 L102.55,767.0346 A0,0 0 0 0 102.55,767.0346 L333.01,767.0346 A0,0 0 0 0 333.01,767.0346 L333.01,703.8373 L323.01,693.8373 L221.78,693.8373 L217.78,511.3073 L213.78,693.8373 L102.55,693.8373 A0,0 0 0 0 102.55,693.8373" fill="#FFFFFF" style="stroke:#000000;stroke-width:1;"/><path d="M323.01,693.8373 L323.01,703.8373 L333.01,703.8373 L323.01,693.8373" fill="#FFFFFF" style="stroke:#000000;stroke-width:1;"/><text fill="#000000" font-family="Verdana" font-size="13" font-weight="700" lengthAdjust="spacing" textLength="209.46" x="108.55" y="711.9071">&#38382;&#39064;&#65288;Gemini review &#183; #464&#65289;</text><text fill="#000000" font-family="Verdana" font-size="13" lengthAdjust="spacing" textLength="208.6982" x="108.55" y="727.7064">&#12539; &lt;all_urls&gt; &#35302;&#21457; CWS &#21152;&#20005;&#23457;&#26680;</text><text fill="#000000" font-family="Verdana" font-size="13" lengthAdjust="spacing" textLength="160.5703" x="108.55" y="743.5058">&#12539; &#26435;&#38480;&#36807;&#23485;&#65292;&#23433;&#20840;&#23457;&#35745;&#21507;&#20111;</text><text fill="#000000" font-family="Verdana" font-size="13" lengthAdjust="spacing" textLength="160.5703" x="108.55" y="759.3051">&#12539; &#29992;&#25143;&#35013;&#25193;&#23637;&#30475;&#35686;&#21578;&#26131;&#32039;&#24352;</text></g><g class="entity" data-qualified-name="GMN24" data-source-line="47" id="ent0025"><path d="M576.5,693.8373 L576.5,767.0346 A0,0 0 0 0 576.5,767.0346 L849.0703,767.0346 A0,0 0 0 0 849.0703,767.0346 L849.0703,703.8373 L839.0703,693.8373 L716.78,693.8373 L712.78,634.1173 L708.78,693.8373 L576.5,693.8373 A0,0 0 0 0 576.5,693.8373" fill="#FFFFFF" style="stroke:#000000;stroke-width:1;"/><path d="M839.0703,693.8373 L839.0703,703.8373 L849.0703,703.8373 L839.0703,693.8373" fill="#FFFFFF" style="stroke:#000000;stroke-width:1;"/><text fill="#000000" font-family="Verdana" font-size="13" font-weight="700" lengthAdjust="spacing" textLength="26" x="582.5" y="711.9071">&#25910;&#30410;</text><text fill="#000000" font-family="Verdana" font-size="13" lengthAdjust="spacing" textLength="143.9585" x="582.5" y="727.7064">&#12539; CWS &#23457;&#26680;&#36208;&#26631;&#20934;&#36335;&#24452;</text><text fill="#000000" font-family="Verdana" font-size="13" lengthAdjust="spacing" textLength="95.5703" x="582.5" y="743.5058">&#12539; &#26435;&#38480;&#26368;&#23567;&#21270;&#65288;</text><text fill="#000000" font-family="Verdana" font-size="13" font-weight="700" lengthAdjust="spacing" textLength="143" x="678.0703" y="743.5058">&#21482;&#25480;&#26435;&#29992;&#25143;&#23454;&#38469;&#29992;&#30340;&#22495;&#21517;</text><text fill="#000000" font-family="Verdana" font-size="13" lengthAdjust="spacing" textLength="13" x="821.0703" y="743.5058">&#65289;</text><text fill="#000000" font-family="Verdana" font-size="13" lengthAdjust="spacing" textLength="173.5703" x="582.5" y="759.3051">&#12539; &#29992;&#25143;&#23545;&#20449;&#20219;&#27169;&#22411;&#26377;&#23436;&#20840;&#25511;&#21046;</text></g><?plantuml-src VLLDJnjN5DtxLxo6JQC86XcdRIB7KfFQNNJHHHIr2qlHs7x02FkDDJE0eggI2J7OnbzyXyO1kqs1adHCfCOORDTIVqgPzsPcnL_8VJCJUmnHOJD2vvnxphttNJvJPt0AetHI48bF5TKaHkpLahLRPKSDkhTg55eiisZs5ut33lht5CtVdfYSyAF_bjVvPy3dKsP5aXPa8OLYGdnsMfRcIEAXb9HaD1RvXlzw48egg1Zzx4FemIWs68pFoJ8cQYY4W1S9FmY7EKgI4rY-Zh1_nhwTz4VyaK-9gO8yZLtaMFZho9tmtQjgNeWDyuU_0a60HIIYFbAVGXzYKZBX-mKYshPlkD6X2RItGVEb6qXGe0cJVkGrnzEv1970Hp8vhehGO5REwUSvc-F-_RPTpiMo_9_qtPRvUvPgHNGVqUoHqLj3KrYDpxZpiAb2N1NdyGZpuO-F4DKQhDxcrlJs7wpUDK-Rz9_dDYE-e8p0ZSqZbZirQgiqTn8b5vcogVMj7OtbCwoMXvh6czsBJCNywu2k5Mo11K4cN04aXiRH-7XeQ0RTG-3SYH0bdyz8YleaZUMKg2YYH9JxGI0zcPEJIkWcg0nfNCJn1mfwky3sMawIQoZN1C0S_tflmpekZWudmFCRBpLMNt574q2UGV__OC2sqNXhTBUD-gBnwtFQtM8RPRg_JwkbcoD32mnbuZEobC8JYYh9mZH6raenIg29I4fZ8eZZSIcL5bHaPKj6JxCrE18dl19clsesYcodnOfvgvOncwVitJFm4XCK_5XE8aaMfqNYE93d23VifHlzZjbSOxagBUppzExBhMNeIOKMjxqh4xYw0hJIPEklhSqCBMtfxMCdgrC8pqkpdE4PUS0UmyS0WpdGnXlaUesIMqX8Yz_Zf-WMIaa9dBGhkWJE7WG0kdMmpTus7F-GCahG3scLBmko6kzXAs4g40OsaJTcNGEf8TkpUnudjIFQFJEETwB4U7O62ZIxQ6fjKBZ6lPQ2hQuRdLVGzYc8oiyOOfMgyVeSFVx9ix1k2BSvGBxYs6wcM-yZw4evj-7LihCKUgS4jgD4RwyEca6NIv336IJVRoAf_1AfgfH2qfHzRw10C1Q2HslzzkAoc_iEfqGYyfeYNk1RC1RuCd3PpGU_Y8K0Uh7KGSC7YCp30rfPG_RLADJXN0nU70SwTSt-2jLwbzqYrV9mYG1XQWrQNTBFAoxEwTlWqSCvSIu6Ux5X_7r8ktKV9Wd4lNyYGS09m3PRnik2n-NmafdlJ-0LqvLbvv2Dc1jiDqG75LevTdR5NGDjpzhDmZT_nFPAymBGZH7Zj7ccznjwf-FyauD72sSNahBo8SsrXju_0000?></g></svg>