<svg xmlns="http://www.w3.org/2000/svg" xmlns:xlink="http://www.w3.org/1999/xlink" contentStyleType="text/css" data-diagram-type="DESCRIPTION" height="918px" preserveAspectRatio="none" style="width:1577px;height:918px;background:#FAFAFA;" version="1.1" viewBox="0 0 1577 918" width="1577px" zoomAndPan="magnify"><?plantuml 1.2026.6?><defs/><g><rect fill="#FAFAFA" height="918" style="stroke:none;stroke-width:1;" width="1577" x="0" y="0"/><g class="title" data-source-line="2"><text fill="#000000" font-family="Verdana" font-size="22" font-weight="700" lengthAdjust="spacing" textLength="348.0361" x="613.4819" y="37.1182">&#27169;&#22359;&#20381;&#36182; &#183; v0.4 &#26435;&#38480;&#25910;&#31364;&#25913;&#36896;&#33539;&#22260;</text></g><!--cluster manifest / ??--><g class="cluster" data-qualified-name="manifest . .." data-source-line="15" id="ent0001"><path d="M1000.5,223.7673 L1117.54,223.7673 A3.75,3.75 0 0 1 1120.04,226.2673 L1127.04,246.782 L1169.5,246.782 A2.5,2.5 0 0 1 1172,249.282 L1172,337.2973 A2.5,2.5 0 0 1 1169.5,339.7973 L1000.5,339.7973 A2.5,2.5 0 0 1 998,337.2973 L998,226.2673 A2.5,2.5 0 0 1 1000.5,223.7673" fill="#FFFFFF" style="stroke:#000000;stroke-width:1;"/><line style="stroke:#000000;stroke-width:1;" x1="998" x2="1127.04" y1="246.782" y2="246.782"/><text fill="#000000" font-family="Verdana" font-size="14" font-weight="700" lengthAdjust="spacing" textLength="116.04" x="1002" y="239.8425">manifest / &#26500;&#24314;</text></g><!--cluster ?? util (src/core/)--><g class="cluster" data-qualified-name=".. util .src.core.." data-source-line="19" id="ent0003"><path d="M282.5,223.7673 L439.1201,223.7673 A3.75,3.75 0 0 1 441.6201,226.2673 L448.6201,246.782 L971.5,246.782 A2.5,2.5 0 0 1 974,249.282 L974,502.3273 A2.5,2.5 0 0 1 971.5,504.8273 L282.5,504.8273 A2.5,2.5 0 0 1 280,502.3273 L280,226.2673 A2.5,2.5 0 0 1 282.5,223.7673" fill="#FFFFFF" style="stroke:#000000;stroke-width:1;"/><line style="stroke:#000000;stroke-width:1;" x1="280" x2="448.6201" y1="246.782" y2="246.782"/><text fill="#000000" font-family="Verdana" font-size="14" font-weight="700" lengthAdjust="spacing" textLength="155.6201" x="284" y="239.8425">&#26680;&#24515; util (src/core/)</text></g><!--cluster ???? (src/engines/)--><g class="cluster" data-qualified-name=".... .src.engines.." data-source-line="26" id="ent0008"><path d="M98.5,553.8273 L279.7295,553.8273 A3.75,3.75 0 0 1 282.2295,556.3273 L289.2295,576.842 L690.5,576.842 A2.5,2.5 0 0 1 693,579.342 L693,808.3873 A2.5,2.5 0 0 1 690.5,810.8873 L98.5,810.8873 A2.5,2.5 0 0 1 96,808.3873 L96,556.3273 A2.5,2.5 0 0 1 98.5,553.8273" fill="#FFFFFF" style="stroke:#000000;stroke-width:1;"/><line style="stroke:#000000;stroke-width:1;" x1="96" x2="289.2295" y1="576.842" y2="576.842"/><text fill="#000000" font-family="Verdana" font-size="14" font-weight="700" lengthAdjust="spacing" textLength="180.2295" x="100" y="569.9025">&#24341;&#25806;&#23454;&#29616; (src/engines/)</text></g><!--cluster UI ?? (src/components/, entrypoints/)--><g class="cluster" data-qualified-name="UI .. .src.components.. entrypoints.." data-source-line="33" id="ent0013"><path d="M934.5,553.8273 L1256.1533,553.8273 A3.75,3.75 0 0 1 1258.6533,556.3273 L1265.6533,576.842 L1518.5,576.842 A2.5,2.5 0 0 1 1521,579.342 L1521,808.3873 A2.5,2.5 0 0 1 1518.5,810.8873 L934.5,810.8873 A2.5,2.5 0 0 1 932,808.3873 L932,556.3273 A2.5,2.5 0 0 1 934.5,553.8273" fill="#FFFFFF" style="stroke:#000000;stroke-width:1;"/><line style="stroke:#000000;stroke-width:1;" x1="932" x2="1265.6533" y1="576.842" y2="576.842"/><text fill="#000000" font-family="Verdana" font-size="14" font-weight="700" lengthAdjust="spacing" textLength="320.6533" x="936" y="569.9025">UI &#32452;&#20214; (src/components/, entrypoints/)</text></g><!--cluster ???? (src/utils/)--><g class="cluster" data-qualified-name=".... .src.utils.." data-source-line="40" id="ent0018"><path d="M1002.5,388.7973 L1156.5361,388.7973 A3.75,3.75 0 0 1 1159.0361,391.2973 L1166.0361,411.812 L1166.5,411.812 A2.5,2.5 0 0 1 1169,414.312 L1169,502.3273 A2.5,2.5 0 0 1 1166.5,504.8273 L1002.5,504.8273 A2.5,2.5 0 0 1 1000,502.3273 L1000,391.2973 A2.5,2.5 0 0 1 1002.5,388.7973" fill="#FFFFFF" style="stroke:#000000;stroke-width:1;"/><line style="stroke:#000000;stroke-width:1;" x1="1000" x2="1166.0361" y1="411.812" y2="411.812"/><text fill="#000000" font-family="Verdana" font-size="14" font-weight="700" lengthAdjust="spacing" textLength="153.0361" x="1004" y="404.8725">&#38169;&#35823;&#31867;&#22411; (src/utils/)</text></g><!--cluster ??--><g class="cluster" data-qualified-name=".." data-source-line="44" id="ent0020"><path d="M13.5,58.7373 L42.5,58.7373 A3.75,3.75 0 0 1 45,61.2373 L52,81.752 L1559.5,81.752 A2.5,2.5 0 0 1 1562,84.252 L1562,172.2673 A2.5,2.5 0 0 1 1559.5,174.7673 L13.5,174.7673 A2.5,2.5 0 0 1 11,172.2673 L11,61.2373 A2.5,2.5 0 0 1 13.5,58.7373" fill="#FFFFFF" style="stroke:#000000;stroke-width:1;"/><line style="stroke:#000000;stroke-width:1;" x1="11" x2="52" y1="81.752" y2="81.752"/><text fill="#000000" font-family="Verdana" font-size="14" font-weight="700" lengthAdjust="spacing" textLength="28" x="15" y="74.8125">&#27979;&#35797;</text></g><!--entity wxt.config.ts--><g class="entity" data-qualified-name="manifest . ...wxt.config.ts" data-source-line="16" id="ent0002"><rect fill="#FFF3E0" height="64.0293" rx="2.5" ry="2.5" style="stroke:#E65100;stroke-width:1;" width="142.5664" x="1013.72" y="259.7673"/><rect fill="#FFF3E0" height="10" style="stroke:#E65100;stroke-width:1;" width="15" x="1136.2864" y="264.7673"/><rect fill="#FFF3E0" height="2" style="stroke:#E65100;stroke-width:1;" width="4" x="1134.2864" y="266.7673"/><rect fill="#FFF3E0" height="2" style="stroke:#E65100;stroke-width:1;" width="4" x="1134.2864" y="270.7673"/><text fill="#000000" font-family="Verdana" font-size="14" font-weight="700" lengthAdjust="spacing" textLength="90.2002" x="1034.9031" y="293.8425">&#171;changed&#187;</text><text fill="#000000" font-family="Verdana" font-size="14" font-weight="700" lengthAdjust="spacing" textLength="102.5664" x="1028.72" y="310.8571">wxt.config.ts</text></g><!--entity origin-pattern.ts--><g class="entity" data-qualified-name=".. util .src.core...origin-pattern.ts" data-source-line="20" id="ent0004"><rect fill="#E8F5E9" height="64.0293" rx="2.5" ry="2.5" style="stroke:#2E7D32;stroke-width:1;" width="170.4912" x="295.75" y="259.7673"/><rect fill="#E8F5E9" height="10" style="stroke:#2E7D32;stroke-width:1;" width="15" x="446.2412" y="264.7673"/><rect fill="#E8F5E9" height="2" style="stroke:#2E7D32;stroke-width:1;" width="4" x="444.2412" y="266.7673"/><rect fill="#E8F5E9" height="2" style="stroke:#2E7D32;stroke-width:1;" width="4" x="444.2412" y="270.7673"/><text fill="#000000" font-family="Verdana" font-size="14" font-weight="700" lengthAdjust="spacing" textLength="56.7725" x="347.6094" y="293.8425">&#171;new&#187;</text><text fill="#000000" font-family="Verdana" font-size="14" font-weight="700" lengthAdjust="spacing" textLength="130.4912" x="310.75" y="310.8571">origin-pattern.ts</text></g><!--entity host-permissions.ts--><g class="entity" data-qualified-name=".. util .src.core...host-permissions.ts" data-source-line="21" id="ent0005"><rect fill="#E8F5E9" height="64.0293" rx="2.5" ry="2.5" style="stroke:#2E7D32;stroke-width:1;" width="195.6611" x="673.17" y="424.7973"/><rect fill="#E8F5E9" height="10" style="stroke:#2E7D32;stroke-width:1;" width="15" x="848.8311" y="429.7973"/><rect fill="#E8F5E9" height="2" style="stroke:#2E7D32;stroke-width:1;" width="4" x="846.8311" y="431.7973"/><rect fill="#E8F5E9" height="2" style="stroke:#2E7D32;stroke-width:1;" width="4" x="846.8311" y="435.7973"/><text fill="#000000" font-family="Verdana" font-size="14" font-weight="700" lengthAdjust="spacing" textLength="56.7725" x="737.6143" y="458.8725">&#171;new&#187;</text><text fill="#000000" font-family="Verdana" font-size="14" font-weight="700" lengthAdjust="spacing" textLength="155.6611" x="688.17" y="475.8871">host-permissions.ts</text></g><!--entity openai-compat-config.ts--><g class="entity" data-qualified-name=".. util .src.core...openai-compat-config.ts" data-source-line="22" id="ent0006"><rect fill="#E3F2FD" height="64.0293" rx="2.5" ry="2.5" style="stroke:#1565C0;stroke-width:1;" width="232.4795" x="500.76" y="259.7673"/><rect fill="#E3F2FD" height="10" style="stroke:#1565C0;stroke-width:1;" width="15" x="713.2395" y="264.7673"/><rect fill="#E3F2FD" height="2" style="stroke:#1565C0;stroke-width:1;" width="4" x="711.2395" y="266.7673"/><rect fill="#E3F2FD" height="2" style="stroke:#1565C0;stroke-width:1;" width="4" x="711.2395" y="270.7673"/><text fill="#000000" font-family="Verdana" font-size="14" font-weight="700" lengthAdjust="spacing" textLength="106.9961" x="558.5017" y="293.8425">&#171;untouched&#187;</text><text fill="#000000" font-family="Verdana" font-size="14" font-weight="700" lengthAdjust="spacing" textLength="192.4795" x="515.76" y="310.8571">openai-compat-config.ts</text></g><!--entity engine-manager.ts--><g class="entity" data-qualified-name=".. util .src.core...engine-manager.ts" data-source-line="23" id="ent0007"><rect fill="#E3F2FD" height="64.0293" rx="2.5" ry="2.5" style="stroke:#1565C0;stroke-width:1;" width="189.1123" x="768.44" y="259.7673"/><rect fill="#E3F2FD" height="10" style="stroke:#1565C0;stroke-width:1;" width="15" x="937.5523" y="264.7673"/><rect fill="#E3F2FD" height="2" style="stroke:#1565C0;stroke-width:1;" width="4" x="935.5523" y="266.7673"/><rect fill="#E3F2FD" height="2" style="stroke:#1565C0;stroke-width:1;" width="4" x="935.5523" y="270.7673"/><text fill="#000000" font-family="Verdana" font-size="14" font-weight="700" lengthAdjust="spacing" textLength="106.9961" x="804.4981" y="293.8425">&#171;untouched&#187;</text><text fill="#000000" font-family="Verdana" font-size="14" font-weight="700" lengthAdjust="spacing" textLength="149.1123" x="783.44" y="310.8571">engine-manager.ts</text></g><!--entity openai-compat.ts--><g class="entity" data-qualified-name=".... .src.engines...openai-compat.ts" data-source-line="27" id="ent0009"><rect fill="#FFF3E0" height="64.0293" rx="2.5" ry="2.5" style="stroke:#E65100;stroke-width:1;" width="177.4502" x="499.27" y="589.8273"/><rect fill="#FFF3E0" height="10" style="stroke:#E65100;stroke-width:1;" width="15" x="656.7202" y="594.8273"/><rect fill="#FFF3E0" height="2" style="stroke:#E65100;stroke-width:1;" width="4" x="654.7202" y="596.8273"/><rect fill="#FFF3E0" height="2" style="stroke:#E65100;stroke-width:1;" width="4" x="654.7202" y="600.8273"/><text fill="#000000" font-family="Verdana" font-size="14" font-weight="700" lengthAdjust="spacing" textLength="90.2002" x="537.895" y="623.9025">&#171;changed&#187;</text><text fill="#000000" font-family="Verdana" font-size="14" font-weight="700" lengthAdjust="spacing" textLength="137.4502" x="514.27" y="640.9171">openai-compat.ts</text></g><!--entity free-translate.ts--><g class="entity" data-qualified-name=".... .src.engines...free-translate.ts" data-source-line="28" id="ent0010"><rect fill="#E3F2FD" height="64.0293" rx="2.5" ry="2.5" style="stroke:#1565C0;stroke-width:1;" width="168.707" x="111.65" y="589.8273"/><rect fill="#E3F2FD" height="10" style="stroke:#1565C0;stroke-width:1;" width="15" x="260.357" y="594.8273"/><rect fill="#E3F2FD" height="2" style="stroke:#1565C0;stroke-width:1;" width="4" x="258.357" y="596.8273"/><rect fill="#E3F2FD" height="2" style="stroke:#1565C0;stroke-width:1;" width="4" x="258.357" y="600.8273"/><text fill="#000000" font-family="Verdana" font-size="14" font-weight="700" lengthAdjust="spacing" textLength="106.9961" x="137.5055" y="623.9025">&#171;untouched&#187;</text><text fill="#000000" font-family="Verdana" font-size="14" font-weight="700" lengthAdjust="spacing" textLength="128.707" x="126.65" y="640.9171">free-translate.ts</text></g><!--entity webllm.ts--><g class="entity" data-qualified-name=".... .src.engines...webllm.ts" data-source-line="29" id="ent0011"><rect fill="#E3F2FD" height="64.0293" rx="2.5" ry="2.5" style="stroke:#1565C0;stroke-width:1;" width="148.9961" x="315.5" y="589.8273"/><rect fill="#E3F2FD" height="10" style="stroke:#1565C0;stroke-width:1;" width="15" x="444.4961" y="594.8273"/><rect fill="#E3F2FD" height="2" style="stroke:#1565C0;stroke-width:1;" width="4" x="442.4961" y="596.8273"/><rect fill="#E3F2FD" height="2" style="stroke:#1565C0;stroke-width:1;" width="4" x="442.4961" y="600.8273"/><text fill="#000000" font-family="Verdana" font-size="14" font-weight="700" lengthAdjust="spacing" textLength="106.9961" x="331.5" y="623.9025">&#171;untouched&#187;</text><text fill="#000000" font-family="Verdana" font-size="14" font-weight="700" lengthAdjust="spacing" textLength="76.9248" x="346.5356" y="640.9171">webllm.ts</text></g><!--entity chrome-ai.ts--><g class="entity" data-qualified-name=".... .src.engines...chrome-ai.ts" data-source-line="30" id="ent0012"><rect fill="#E3F2FD" height="64.0293" rx="2.5" ry="2.5" style="stroke:#1565C0;stroke-width:1;" width="148.9961" x="121.5" y="730.8573"/><rect fill="#E3F2FD" height="10" style="stroke:#1565C0;stroke-width:1;" width="15" x="250.4961" y="735.8573"/><rect fill="#E3F2FD" height="2" style="stroke:#1565C0;stroke-width:1;" width="4" x="248.4961" y="737.8573"/><rect fill="#E3F2FD" height="2" style="stroke:#1565C0;stroke-width:1;" width="4" x="248.4961" y="741.8573"/><text fill="#000000" font-family="Verdana" font-size="14" font-weight="700" lengthAdjust="spacing" textLength="106.9961" x="137.5" y="764.9325">&#171;untouched&#187;</text><text fill="#000000" font-family="Verdana" font-size="14" font-weight="700" lengthAdjust="spacing" textLength="99.4902" x="141.2529" y="781.9471">chrome-ai.ts</text></g><!--entity OpenAiCompatSection.tsx--><g class="entity" data-qualified-name="UI .. .src.components.. entrypoints...OpenAiCompatSection.tsx" data-source-line="34" id="ent0014"><rect fill="#FFF3E0" height="64.0293" rx="2.5" ry="2.5" style="stroke:#E65100;stroke-width:1;" width="244.0254" x="1260.99" y="589.8273"/><rect fill="#FFF3E0" height="10" style="stroke:#E65100;stroke-width:1;" width="15" x="1485.0154" y="594.8273"/><rect fill="#FFF3E0" height="2" style="stroke:#E65100;stroke-width:1;" width="4" x="1483.0154" y="596.8273"/><rect fill="#FFF3E0" height="2" style="stroke:#E65100;stroke-width:1;" width="4" x="1483.0154" y="600.8273"/><text fill="#000000" font-family="Verdana" font-size="14" font-weight="700" lengthAdjust="spacing" textLength="90.2002" x="1332.9026" y="623.9025">&#171;changed&#187;</text><text fill="#000000" font-family="Verdana" font-size="14" font-weight="700" lengthAdjust="spacing" textLength="204.0254" x="1275.99" y="640.9171">OpenAiCompatSection.tsx</text></g><!--entity PermissionRequiredNotice.tsx--><g class="entity" data-qualified-name="UI .. .src.components.. entrypoints...PermissionRequiredNotice.tsx" data-source-line="35" id="ent0015"><rect fill="#E8F5E9" height="64.0293" rx="2.5" ry="2.5" style="stroke:#2E7D32;stroke-width:1;" width="277.207" x="948.4" y="589.8273"/><rect fill="#E8F5E9" height="10" style="stroke:#2E7D32;stroke-width:1;" width="15" x="1205.607" y="594.8273"/><rect fill="#E8F5E9" height="2" style="stroke:#2E7D32;stroke-width:1;" width="4" x="1203.607" y="596.8273"/><rect fill="#E8F5E9" height="2" style="stroke:#2E7D32;stroke-width:1;" width="4" x="1203.607" y="600.8273"/><text fill="#000000" font-family="Verdana" font-size="14" font-weight="700" lengthAdjust="spacing" textLength="56.7725" x="1053.6173" y="623.9025">&#171;new&#187;</text><text fill="#000000" font-family="Verdana" font-size="14" font-weight="700" lengthAdjust="spacing" textLength="237.207" x="963.4" y="640.9171">PermissionRequiredNotice.tsx</text></g><!--entity SidePanel/App.tsx--><g class="entity" data-qualified-name="UI .. .src.components.. entrypoints...SidePanel.App.tsx" data-source-line="36" id="ent0016"><rect fill="#FFF3E0" height="64.0293" rx="2.5" ry="2.5" style="stroke:#E65100;stroke-width:1;" width="186.6924" x="970.65" y="730.8573"/><rect fill="#FFF3E0" height="10" style="stroke:#E65100;stroke-width:1;" width="15" x="1137.3424" y="735.8573"/><rect fill="#FFF3E0" height="2" style="stroke:#E65100;stroke-width:1;" width="4" x="1135.3424" y="737.8573"/><rect fill="#FFF3E0" height="2" style="stroke:#E65100;stroke-width:1;" width="4" x="1135.3424" y="741.8573"/><text fill="#000000" font-family="Verdana" font-size="14" font-weight="700" lengthAdjust="spacing" textLength="90.2002" x="1013.8961" y="764.9325">&#171;changed&#187;</text><text fill="#000000" font-family="Verdana" font-size="14" font-weight="700" lengthAdjust="spacing" textLength="146.6924" x="985.65" y="781.9471">SidePanel/App.tsx</text></g><!--entity SelectionBubbleHost.tsx--><g class="entity" data-qualified-name="UI .. .src.components.. entrypoints...SelectionBubbleHost.tsx" data-source-line="37" id="ent0017"><rect fill="#FFF3E0" height="64.0293" rx="2.5" ry="2.5" style="stroke:#E65100;stroke-width:1;" width="231.7344" x="1192.13" y="730.8573"/><rect fill="#FFF3E0" height="10" style="stroke:#E65100;stroke-width:1;" width="15" x="1403.8644" y="735.8573"/><rect fill="#FFF3E0" height="2" style="stroke:#E65100;stroke-width:1;" width="4" x="1401.8644" y="737.8573"/><rect fill="#FFF3E0" height="2" style="stroke:#E65100;stroke-width:1;" width="4" x="1401.8644" y="741.8573"/><text fill="#000000" font-family="Verdana" font-size="14" font-weight="700" lengthAdjust="spacing" textLength="90.2002" x="1257.8971" y="764.9325">&#171;changed&#187;</text><text fill="#000000" font-family="Verdana" font-size="14" font-weight="700" lengthAdjust="spacing" textLength="191.7344" x="1207.13" y="781.9471">SelectionBubbleHost.tsx</text></g><!--entity error.ts--><g class="entity" data-qualified-name=".... .src.utils...error.ts" data-source-line="41" id="ent0019"><rect fill="#FFF3E0" height="64.0293" rx="2.5" ry="2.5" style="stroke:#E65100;stroke-width:1;" width="132.2002" x="1017.9" y="424.7973"/><rect fill="#FFF3E0" height="10" style="stroke:#E65100;stroke-width:1;" width="15" x="1130.1002" y="429.7973"/><rect fill="#FFF3E0" height="2" style="stroke:#E65100;stroke-width:1;" width="4" x="1128.1002" y="431.7973"/><rect fill="#FFF3E0" height="2" style="stroke:#E65100;stroke-width:1;" width="4" x="1128.1002" y="435.7973"/><text fill="#000000" font-family="Verdana" font-size="14" font-weight="700" lengthAdjust="spacing" textLength="90.2002" x="1033.9" y="458.8725">&#171;changed&#187;</text><text fill="#000000" font-family="Verdana" font-size="14" font-weight="700" lengthAdjust="spacing" textLength="59.5273" x="1049.2364" y="475.8871">error.ts</text></g><!--entity tests/unit/core/origin-pattern.spec.ts--><g class="entity" data-qualified-name="...tests.unit.core.origin-pattern.spec.ts" data-source-line="45" id="ent0021"><rect fill="#E8F5E9" height="64.0293" rx="2.5" ry="2.5" style="stroke:#2E7D32;stroke-width:1;" width="344.0146" x="439.99" y="94.7373"/><rect fill="#E8F5E9" height="10" style="stroke:#2E7D32;stroke-width:1;" width="15" x="764.0046" y="99.7373"/><rect fill="#E8F5E9" height="2" style="stroke:#2E7D32;stroke-width:1;" width="4" x="762.0046" y="101.7373"/><rect fill="#E8F5E9" height="2" style="stroke:#2E7D32;stroke-width:1;" width="4" x="762.0046" y="105.7373"/><text fill="#000000" font-family="Verdana" font-size="14" font-weight="700" lengthAdjust="spacing" textLength="56.7725" x="578.6111" y="128.8125">&#171;new&#187;</text><text fill="#000000" font-family="Verdana" font-size="14" font-weight="700" lengthAdjust="spacing" textLength="304.0146" x="454.99" y="145.8271">tests/unit/core/origin-pattern.spec.ts</text></g><!--entity tests/unit/core/host-permissions.spec.ts--><g class="entity" data-qualified-name="...tests.unit.core.host-permissions.spec.ts" data-source-line="46" id="ent0022"><rect fill="#E8F5E9" height="64.0293" rx="2.5" ry="2.5" style="stroke:#2E7D32;stroke-width:1;" width="369.1846" x="819.41" y="94.7373"/><rect fill="#E8F5E9" height="10" style="stroke:#2E7D32;stroke-width:1;" width="15" x="1168.5946" y="99.7373"/><rect fill="#E8F5E9" height="2" style="stroke:#2E7D32;stroke-width:1;" width="4" x="1166.5946" y="101.7373"/><rect fill="#E8F5E9" height="2" style="stroke:#2E7D32;stroke-width:1;" width="4" x="1166.5946" y="105.7373"/><text fill="#000000" font-family="Verdana" font-size="14" font-weight="700" lengthAdjust="spacing" textLength="56.7725" x="970.6161" y="128.8125">&#171;new&#187;</text><text fill="#000000" font-family="Verdana" font-size="14" font-weight="700" lengthAdjust="spacing" textLength="329.1846" x="834.41" y="145.8271">tests/unit/core/host-permissions.spec.ts</text></g><!--entity tests/unit/engines/openai-compat.spec.ts--><g class="entity" data-qualified-name="...tests.unit.engines.openai-compat.spec.ts" data-source-line="47" id="ent0023"><rect fill="#FFF3E0" height="64.0293" rx="2.5" ry="2.5" style="stroke:#E65100;stroke-width:1;" width="378.29" x="26.85" y="94.7373"/><rect fill="#FFF3E0" height="10" style="stroke:#E65100;stroke-width:1;" width="15" x="385.14" y="99.7373"/><rect fill="#FFF3E0" height="2" style="stroke:#E65100;stroke-width:1;" width="4" x="383.14" y="101.7373"/><rect fill="#FFF3E0" height="2" style="stroke:#E65100;stroke-width:1;" width="4" x="383.14" y="105.7373"/><text fill="#000000" font-family="Verdana" font-size="14" font-weight="700" lengthAdjust="spacing" textLength="90.2002" x="165.8949" y="128.8125">&#171;changed&#187;</text><text fill="#000000" font-family="Verdana" font-size="14" font-weight="700" lengthAdjust="spacing" textLength="338.29" x="41.85" y="145.8271">tests/unit/engines/openai-compat.spec.ts</text></g><!--entity tests/e2e/permissions-flow.spec.ts--><g class="entity" data-qualified-name="...tests.e2e.permissions-flow.spec.ts" data-source-line="48" id="ent0024"><rect fill="#E8F5E9" height="64.0293" rx="2.5" ry="2.5" style="stroke:#2E7D32;stroke-width:1;" width="322.6182" x="1223.69" y="94.7373"/><rect fill="#E8F5E9" height="10" style="stroke:#2E7D32;stroke-width:1;" width="15" x="1526.3082" y="99.7373"/><rect fill="#E8F5E9" height="2" style="stroke:#2E7D32;stroke-width:1;" width="4" x="1524.3082" y="101.7373"/><rect fill="#E8F5E9" height="2" style="stroke:#2E7D32;stroke-width:1;" width="4" x="1524.3082" y="105.7373"/><text fill="#000000" font-family="Verdana" font-size="14" font-weight="700" lengthAdjust="spacing" textLength="56.7725" x="1351.6129" y="128.8125">&#171;new&#187;</text><text fill="#000000" font-family="Verdana" font-size="14" font-weight="700" lengthAdjust="spacing" textLength="282.6182" x="1238.69" y="145.8271">tests/e2e/permissions-flow.spec.ts</text></g><!--link origin-pattern.ts to host-permissions.ts--><g class="link" data-entity-1="ent0004" data-entity-2="ent0005" data-link-type="dependency" data-source-line="52" id="lnk25"><path d="M435.89,324.1573 C450.96,332.2773 467.43,340.7173 483,347.7973 C546.56,376.6973 615.6034,402.5979 672.5634,422.6379" fill="none" id="origin-pattern.ts-to-host-permissions.ts" style="stroke:#000000;stroke-width:1;stroke-dasharray:7,7;"/><polygon fill="#000000" points="677.28,424.2973,670.1177,417.5371,672.5634,422.6379,667.4626,425.0836,677.28,424.2973" style="stroke:#000000;stroke-width:1;stroke-linejoin:miter;stroke-miterlimit:10;"/><text fill="#000000" font-family="Verdana" font-size="13" lengthAdjust="spacing" textLength="78.2412" x="538.01" y="369.8671">&#29983;&#25104; pattern</text></g><!--link origin-pattern.ts to openai-compat.ts--><g class="link" data-entity-1="ent0004" data-entity-2="ent0009" data-link-type="dependency" data-source-line="53" id="lnk26"><path d="M400.85,324.2373 C440.41,386.9473 526.0322,522.6285 565.5422,585.2585" fill="none" id="origin-pattern.ts-to-openai-compat.ts" style="stroke:#000000;stroke-width:1;stroke-dasharray:7,7;"/><polygon fill="#000000" points="568.21,589.4873,566.7911,579.7412,565.5422,585.2585,560.025,584.0096,568.21,589.4873" style="stroke:#000000;stroke-width:1;stroke-linejoin:miter;stroke-miterlimit:10;"/><text fill="#000000" font-family="Verdana" font-size="13" lengthAdjust="spacing" textLength="78.2412" x="519.43" y="462.3871">&#29983;&#25104; pattern</text></g><!--link host-permissions.ts to openai-compat.ts--><g class="link" data-entity-1="ent0005" data-entity-2="ent0009" data-link-type="dependency" data-source-line="54" id="lnk27"><path d="M673.03,482.5373 C652.25,491.6773 632.06,504.0773 617,520.8273 C600.08,539.6473 593.6654,562.8431 590.7154,584.4831" fill="none" id="host-permissions.ts-to-openai-compat.ts" style="stroke:#000000;stroke-width:1;stroke-dasharray:7,7;"/><polygon fill="#000000" points="590.04,589.4373,595.219,581.0601,590.7154,584.4831,587.2923,579.9795,590.04,589.4373" style="stroke:#000000;stroke-width:1;stroke-linejoin:miter;stroke-miterlimit:10;"/><text fill="#000000" font-family="Verdana" font-size="13" lengthAdjust="spacing" textLength="109.5479" x="618" y="534.8971">contains/request</text></g><!--link host-permissions.ts to OpenAiCompatSection.tsx--><g class="link" data-entity-1="ent0005" data-entity-2="ent0014" data-link-type="dependency" data-source-line="55" id="lnk28"><path d="M761.51,489.1073 C758.54,505.7673 758.73,525.3473 771,537.8273 C780.19,547.1773 1230.31,542.5273 1243,545.8273 C1276.76,554.6073 1307.0943,570.3864 1333.4443,586.7764" fill="none" id="host-permissions.ts-to-OpenAiCompatSection.tsx" style="stroke:#000000;stroke-width:1;stroke-dasharray:7,7;"/><polygon fill="#000000" points="1337.69,589.4173,1332.1605,581.2672,1333.4443,586.7764,1327.9351,588.0603,1337.69,589.4173" style="stroke:#000000;stroke-width:1;stroke-linejoin:miter;stroke-miterlimit:10;"/><text fill="#000000" font-family="Verdana" font-size="13" lengthAdjust="spacing" textLength="71.5571" x="772" y="534.8971">UI &#25480;&#26435;&#25353;&#38062;</text></g><!--link error.ts to openai-compat.ts--><g class="link" data-entity-1="ent0019" data-entity-2="ent0009" data-link-type="dependency" data-source-line="56" id="lnk29"><path d="M1030.09,489.2273 C1012.69,498.1373 992.98,506.9973 974,512.8273 C948.28,520.7273 940.28,515.0873 914,520.8273 C868.74,530.7173 761.748,564.3606 681.708,590.2106" fill="none" id="error.ts-to-openai-compat.ts" style="stroke:#000000;stroke-width:1;stroke-dasharray:7,7;"/><polygon fill="#000000" points="676.95,591.7473,686.7438,592.7877,681.708,590.2106,684.2851,585.1749,676.95,591.7473" style="stroke:#000000;stroke-width:1;stroke-linejoin:miter;stroke-miterlimit:10;"/><text fill="#000000" font-family="Verdana" font-size="13" lengthAdjust="spacing" textLength="161.3955" x="915" y="534.8971">PermissionRequiredError</text></g><!--link error.ts to PermissionRequiredNotice.tsx--><g class="link" data-entity-1="ent0019" data-entity-2="ent0015" data-link-type="dependency" data-source-line="57" id="lnk30"><path d="M1084.58,489.2473 C1085.11,518.1173 1085.7981,555.6681 1086.3281,584.5081" fill="none" id="error.ts-to-PermissionRequiredNotice.tsx" style="stroke:#000000;stroke-width:1;stroke-dasharray:7,7;"/><polygon fill="#000000" points="1086.42,589.5073,1090.254,580.4353,1086.3281,584.5081,1082.2553,580.5823,1086.42,589.5073" style="stroke:#000000;stroke-width:1;stroke-linejoin:miter;stroke-miterlimit:10;"/><text fill="#000000" font-family="Verdana" font-size="13" lengthAdjust="spacing" textLength="78" x="1086.41" y="534.8971">&#35782;&#21035;&#38169;&#35823;&#31867;&#22411;</text></g><!--link PermissionRequiredNotice.tsx to SidePanel/App.tsx--><g class="link" data-entity-1="ent0015" data-entity-2="ent0016" data-link-type="dependency" data-source-line="58" id="lnk31"><path d="M1081.84,654.0473 C1078.05,676.9373 1073.7474,702.9746 1069.9574,725.8446" fill="none" id="PermissionRequiredNotice.tsx-to-SidePanel/App.tsx" style="stroke:#000000;stroke-width:1;stroke-dasharray:7,7;"/><polygon fill="#000000" points="1069.14,730.7773,1074.5576,722.5524,1069.9574,725.8446,1066.6652,721.2444,1069.14,730.7773" style="stroke:#000000;stroke-width:1;stroke-linejoin:miter;stroke-miterlimit:10;"/><text fill="#000000" font-family="Verdana" font-size="13" lengthAdjust="spacing" textLength="61.9912" x="1077.88" y="697.9271">&#26410;&#25480;&#26435; UX</text></g><!--link PermissionRequiredNotice.tsx to SelectionBubbleHost.tsx--><g class="link" data-entity-1="ent0015" data-entity-2="ent0017" data-link-type="dependency" data-source-line="59" id="lnk32"><path d="M1136.87,654.2173 C1173.03,676.9673 1217.4976,704.9351 1253.6976,727.7051" fill="none" id="PermissionRequiredNotice.tsx-to-SelectionBubbleHost.tsx" style="stroke:#000000;stroke-width:1;stroke-dasharray:7,7;"/><polygon fill="#000000" points="1257.93,730.3673,1252.4415,722.1895,1253.6976,727.7051,1248.182,728.9613,1257.93,730.3673" style="stroke:#000000;stroke-width:1;stroke-linejoin:miter;stroke-miterlimit:10;"/><text fill="#000000" font-family="Verdana" font-size="13" lengthAdjust="spacing" textLength="61.9912" x="1211.73" y="697.9271">&#26410;&#25480;&#26435; UX</text></g><!--link wxt.config.ts to host-permissions.ts--><g class="link" data-entity-1="ent0002" data-entity-2="ent0005" data-link-type="dependency" data-source-line="61" id="lnk33"><path d="M1024.46,324.2173 C968.94,353.0373 891.5974,393.1931 836.0574,422.0331" fill="none" id="wxt.config.ts-to-host-permissions.ts" style="stroke:#000000;stroke-width:1;stroke-dasharray:7,7;"/><polygon fill="#000000" points="831.62,424.3373,841.4507,423.7397,836.0574,422.0331,837.764,416.6398,831.62,424.3373" style="stroke:#000000;stroke-width:1;stroke-linejoin:miter;stroke-miterlimit:10;"/><text fill="#000000" font-family="Verdana" font-size="13" lengthAdjust="spacing" textLength="174.3193" x="957.12" y="369.8671">optional_host_permissions</text></g><!--link tests/unit/core/origin-pattern.spec.ts to origin-pattern.ts--><g class="link" data-entity-1="ent0021" data-entity-2="ent0004" data-link-type="dependency" data-source-line="64" id="lnk34"><path d="M565.15,159.1373 C540.55,175.7573 509.99,196.6473 483,215.7673 C463.09,229.8773 445.2886,242.8823 426.9586,256.4523" fill="none" id="tests/unit/core/origin-pattern.spec.ts-to-origin-pattern.ts" style="stroke:#000000;stroke-width:1;stroke-dasharray:7,7;"/><polygon fill="#000000" points="422.94,259.4273,432.5535,257.2871,426.9586,256.4523,427.7935,250.8574,422.94,259.4273" style="stroke:#000000;stroke-width:1;stroke-linejoin:miter;stroke-miterlimit:10;"/><text fill="#000000" font-family="Verdana" font-size="13" lengthAdjust="spacing" textLength="26" x="519.16" y="204.8371">&#35206;&#30422;</text></g><!--link tests/unit/core/host-permissions.spec.ts to host-permissions.ts--><g class="link" data-entity-1="ent0022" data-entity-2="ent0005" data-link-type="dependency" data-source-line="65" id="lnk35"><path d="M1105.84,159.2473 C1131.9,172.4173 1156.83,190.6973 1172,215.7673 C1202.38,265.9773 1197.72,295.0573 1172,347.7973 C1164.09,364.0173 1156.89,366.4273 1140,372.7973 C1111.26,383.6373 1032.19,375.1173 1002,380.7973 C950.51,390.4873 899.2908,406.7337 855.3608,422.6537" fill="none" id="tests/unit/core/host-permissions.spec.ts-to-host-permissions.ts" style="stroke:#000000;stroke-width:1;stroke-dasharray:7,7;"/><polygon fill="#000000" points="850.66,424.3573,860.4844,425.0516,855.3608,422.6537,857.7587,417.5302,850.66,424.3573" style="stroke:#000000;stroke-width:1;stroke-linejoin:miter;stroke-miterlimit:10;"/><text fill="#000000" font-family="Verdana" font-size="13" lengthAdjust="spacing" textLength="26" x="1194.07" y="297.3571">&#35206;&#30422;</text></g><!--link tests/unit/engines/openai-compat.spec.ts to openai-compat.ts--><g class="link" data-entity-1="ent0023" data-entity-2="ent0009" data-link-type="dependency" data-source-line="66" id="lnk36"><path d="M210.19,159.2373 C198.6,232.9673 181.5,417.7573 280,512.8273 C345.45,576.0073 397.82,511.3373 482,545.8273 C507.66,556.3473 529.2216,570.949 548.7616,586.539" fill="none" id="tests/unit/engines/openai-compat.spec.ts-to-openai-compat.ts" style="stroke:#000000;stroke-width:1;stroke-dasharray:7,7;"/><polygon fill="#000000" points="552.67,589.6573,548.1295,580.9175,548.7616,586.539,543.1401,587.171,552.67,589.6573" style="stroke:#000000;stroke-width:1;stroke-linejoin:miter;stroke-miterlimit:10;"/><text fill="#000000" font-family="Verdana" font-size="13" lengthAdjust="spacing" textLength="26" x="211.32" y="369.8671">&#35206;&#30422;</text></g><!--link tests/e2e/permissions-flow.spec.ts to OpenAiCompatSection.tsx--><g class="link" data-entity-1="ent0024" data-entity-2="ent0014" data-link-type="dependency" data-source-line="67" id="lnk37"><path d="M1384.87,158.9773 C1384.51,247.6773 1383.5102,495.5173 1383.1502,584.4473" fill="none" id="tests/e2e/permissions-flow.spec.ts-to-OpenAiCompatSection.tsx" style="stroke:#000000;stroke-width:1;stroke-dasharray:7,7;"/><polygon fill="#000000" points="1383.13,589.4473,1387.1664,580.4636,1383.1502,584.4473,1379.1665,580.4312,1383.13,589.4473" style="stroke:#000000;stroke-width:1;stroke-linejoin:miter;stroke-miterlimit:10;"/><text fill="#000000" font-family="Verdana" font-size="13" lengthAdjust="spacing" textLength="39" x="1385.07" y="369.8671">&#31471;&#21040;&#31471;</text></g><g class="legend" data-source-line="69"><rect fill="none" height="82.0586" rx="7.5" ry="7.5" style="stroke:#000000;stroke-width:1;" width="182.6143" x="1382.3857" y="824.8873"/><text fill="#000000" font-family="Verdana" font-size="14" font-weight="700" lengthAdjust="spacing" textLength="28" x="1392.1709" y="845.9625">&#39068;&#33394;</text><text fill="#000000" font-family="Verdana" font-size="14" font-weight="700" lengthAdjust="spacing" textLength="28" x="1498.9414" y="845.9625">&#35821;&#20041;</text><rect fill="#E8F5E9" height="17.0146" style="stroke:none;stroke-width:1;" width="106.7705" x="1387.3857" y="848.902"/><text fill="#000000" font-family="Verdana" font-size="14" lengthAdjust="spacing" textLength="100.7686" x="1387.3857" y="862.9771">&#9632;&lt;/#E8F5E9&gt;</text><text fill="#000000" font-family="Verdana" font-size="14" lengthAdjust="spacing" textLength="28" x="1499.0781" y="862.9771">&#26032;&#22686;</text><rect fill="#FFF3E0" height="17.0146" style="stroke:none;stroke-width:1;" width="106.7705" x="1387.3857" y="865.9166"/><text fill="#000000" font-family="Verdana" font-size="14" lengthAdjust="spacing" textLength="99.1074" x="1387.3857" y="879.9918">&#9632;&lt;/#FFF3E0&gt;</text><text fill="#000000" font-family="Verdana" font-size="14" lengthAdjust="spacing" textLength="28" x="1499.0781" y="879.9918">&#20462;&#25913;</text><rect fill="#E3F2FD" height="17.0146" style="stroke:none;stroke-width:1;" width="106.7705" x="1387.3857" y="882.9313"/><text fill="#000000" font-family="Verdana" font-size="14" lengthAdjust="spacing" textLength="101.8486" x="1387.3857" y="897.0064">&#9632;&lt;/#E3F2FD&gt;</text><text fill="#000000" font-family="Verdana" font-size="14" lengthAdjust="spacing" textLength="56" x="1499.0781" y="897.0064">&#20445;&#25345;&#19981;&#21464;</text><line style="stroke:#000000;stroke-width:1;" x1="1387.3857" x2="1560" y1="831.8873" y2="831.8873"/><line style="stroke:#000000;stroke-width:1;" x1="1387.3857" x2="1560" y1="848.902" y2="848.902"/><line style="stroke:#000000;stroke-width:1;" x1="1387.3857" x2="1560" y1="865.9166" y2="865.9166"/><line style="stroke:#000000;stroke-width:1;" x1="1387.3857" x2="1560" y1="882.9313" y2="882.9313"/><line style="stroke:#000000;stroke-width:1;" x1="1387.3857" x2="1560" y1="899.9459" y2="899.9459"/><line style="stroke:#000000;stroke-width:1;" x1="1387.3857" x2="1387.3857" y1="831.8873" y2="899.9459"/><line style="stroke:#000000;stroke-width:1;" x1="1494.1563" x2="1494.1563" y1="831.8873" y2="899.9459"/><line style="stroke:#000000;stroke-width:1;" x1="1560" x2="1560" y1="831.8873" y2="899.9459"/></g><?plantuml-src bLPTRnD757tVNt5B7jfAjJSa3MrH6Ya4M-qBe4P8bQeAhTStzeZrp7Ps78CA4YWXSaGQ40rf4II4I1H4r3WjXK8T5Qa_1NdNwoV-GcS_dApNQsyOIxR7S-RSS--SEzuFH1ah2AQX4Qe88Wm4v-aZU-ENrhyRxejr-Ezlc1_DVWhEnaBdtcrdxMNxsQApzhfpRSjTMR3l_wKeraL2JOrh5IXe-iKIPrLQd646up2Id_PU4OJEAYQZI0Nyg02SwiLFJbAiJKr1C4Pod-SdSbzuCCQBo1CW0MuizzdfyR4aEhsiqH8MVVn8FfyVput6wQAGCEo9YUEZeqbqLIfOLI_xw97SU7uiVpfE5uK4TCSdJapCU7HvHiMik2phMs16KRcgAAOCe9KGZbKqIkRG4g22ixbeD_yvvfVdkzebaTKPdIEbhB2-XuZQdktErYlxpG9K1J7W8ulhgiuugX-798oJ4g4PKnC2EGs9_2fwgsLcYOo9l48iYp1gnTUPYLGZ6U_SD97f4HF9rKCYbM4m8tEHedW29YhPth_h_BngxswsL_S2pS5swr1sD71V-X8mnn4pWclKCZI1oPfgM32CIlAQNkQiWXcDf4Wz_pMqcukjvijkRKC7M-ed83_uPPCHRzOLVbOAdoOplkvPr8MigenmgK__kOEYVuC_L0d7uXacY8vTyC4Hp98YdjCe6kgqQIPIpQ8H13fLBHGC_4gUQJykcbDdxPxRQBJ_QDgRDuEqFFCSve2SCpxSSozkkesx8Ln8xrfgbH8HM2zcESj4FUwh-9O-7wPiwjgbroQHJJq52ZRY6AgH49avWzNwuyWiFuJWyhDlF6y_Rof9BHIER7PgG0_vuoIqrnuwzTiGRasbwdTzT_HJ3GwRIYNxMCZxtbAvj9wiJIhPG5DBCjaWpcfT_ZyuAykTExjAn3tnaIgilobo7bagv_1cEWbkOyckxqHjhwJiyMaJMi-NwJnu5gGCvxyz6j6W3ernAV4xFvxeCAynqukW6HSyq8K8o7DqqB3mTkaEkDixSlPkl-u-UWppn8C0ntc2DN0MRxbFhh_RNrQEtDIHWnteRNa0losrxwyhxz7tHyauWJNbOZYA2NjPXzyQlQSph4tQEmsxlYVV5SN04j8Yo7ALXRoUhdm9dUq7xlAVtZUtyNlhzJ9SyNw7oV0XQEhj-jQasft81MTzpzxUF405ppOXAfp8XTQRNVceTiZbFx9qkOA9ZzfmLgwtNlrat_fLOgMoG9_oFm00?></g></svg>