<svg xmlns="http://www.w3.org/2000/svg" xmlns:xlink="http://www.w3.org/1999/xlink" width="1577" height="918" contentStyleType="text/css" data-diagram-type="DESCRIPTION" preserveAspectRatio="none" style="width:1577px;height:918px;background:#fafafa" version="1.1" viewBox="0 0 1577 918" zoomAndPan="magnify"><?plantuml 1.2026.6?><g><rect width="1577" height="918" x="0" fill="#FAFAFA" style="stroke:none;stroke-width:1" y="0"/><g class="title" data-source-line="2"><text x="613.482" y="37.118" fill="#000" font-family="Verdana" font-size="22" font-weight="700" lengthAdjust="spacing" textLength="348.036">模块依赖 · v0.4 权限收窄改造范围</text></g><g id="ent0001" class="cluster" data-qualified-name="manifest . .." data-source-line="15"><path fill="#FFF" d="M1000.5,223.7673 L1117.54,223.7673 A3.75,3.75 0 0 1 1120.04,226.2673 L1127.04,246.782 L1169.5,246.782 A2.5,2.5 0 0 1 1172,249.282 L1172,337.2973 A2.5,2.5 0 0 1 1169.5,339.7973 L1000.5,339.7973 A2.5,2.5 0 0 1 998,337.2973 L998,226.2673 A2.5,2.5 0 0 1 1000.5,223.7673" style="stroke:#000;stroke-width:1"/><line style="stroke:#000;stroke-width:1" x1="998" x2="1127.04" y1="246.782" y2="246.782"/><text x="1002" y="239.843" fill="#000" font-family="Verdana" font-size="14" font-weight="700" lengthAdjust="spacing" textLength="116.04">manifest / 构建</text></g><g id="ent0003" class="cluster" data-qualified-name=".. util .src.core.." data-source-line="19"><path fill="#FFF" d="M282.5,223.7673 L439.1201,223.7673 A3.75,3.75 0 0 1 441.6201,226.2673 L448.6201,246.782 L971.5,246.782 A2.5,2.5 0 0 1 974,249.282 L974,502.3273 A2.5,2.5 0 0 1 971.5,504.8273 L282.5,504.8273 A2.5,2.5 0 0 1 280,502.3273 L280,226.2673 A2.5,2.5 0 0 1 282.5,223.7673" style="stroke:#000;stroke-width:1"/><line style="stroke:#000;stroke-width:1" x1="280" x2="448.62" y1="246.782" y2="246.782"/><text x="284" y="239.843" fill="#000" font-family="Verdana" font-size="14" font-weight="700" lengthAdjust="spacing" textLength="155.62">核心 util (src/core/)</text></g><g id="ent0008" class="cluster" data-qualified-name=".... .src.engines.." data-source-line="26"><path fill="#FFF" d="M98.5,553.8273 L279.7295,553.8273 A3.75,3.75 0 0 1 282.2295,556.3273 L289.2295,576.842 L690.5,576.842 A2.5,2.5 0 0 1 693,579.342 L693,808.3873 A2.5,2.5 0 0 1 690.5,810.8873 L98.5,810.8873 A2.5,2.5 0 0 1 96,808.3873 L96,556.3273 A2.5,2.5 0 0 1 98.5,553.8273" style="stroke:#000;stroke-width:1"/><line style="stroke:#000;stroke-width:1" x1="96" x2="289.229" y1="576.842" y2="576.842"/><text x="100" y="569.903" fill="#000" font-family="Verdana" font-size="14" font-weight="700" lengthAdjust="spacing" textLength="180.23">引擎实现 (src/engines/)</text></g><g id="ent0013" class="cluster" data-qualified-name="UI .. .src.components.. entrypoints.." data-source-line="33"><path fill="#FFF" d="M934.5,553.8273 L1256.1533,553.8273 A3.75,3.75 0 0 1 1258.6533,556.3273 L1265.6533,576.842 L1518.5,576.842 A2.5,2.5 0 0 1 1521,579.342 L1521,808.3873 A2.5,2.5 0 0 1 1518.5,810.8873 L934.5,810.8873 A2.5,2.5 0 0 1 932,808.3873 L932,556.3273 A2.5,2.5 0 0 1 934.5,553.8273" style="stroke:#000;stroke-width:1"/><line style="stroke:#000;stroke-width:1" x1="932" x2="1265.653" y1="576.842" y2="576.842"/><text x="936" y="569.903" fill="#000" font-family="Verdana" font-size="14" font-weight="700" lengthAdjust="spacing" textLength="320.653">UI 组件 (src/components/, entrypoints/)</text></g><g id="ent0018" class="cluster" data-qualified-name=".... .src.utils.." data-source-line="40"><path fill="#FFF" d="M1002.5,388.7973 L1156.5361,388.7973 A3.75,3.75 0 0 1 1159.0361,391.2973 L1166.0361,411.812 L1166.5,411.812 A2.5,2.5 0 0 1 1169,414.312 L1169,502.3273 A2.5,2.5 0 0 1 1166.5,504.8273 L1002.5,504.8273 A2.5,2.5 0 0 1 1000,502.3273 L1000,391.2973 A2.5,2.5 0 0 1 1002.5,388.7973" style="stroke:#000;stroke-width:1"/><line style="stroke:#000;stroke-width:1" x1="1000" x2="1166.036" y1="411.812" y2="411.812"/><text x="1004" y="404.873" fill="#000" font-family="Verdana" font-size="14" font-weight="700" lengthAdjust="spacing" textLength="153.036">错误类型 (src/utils/)</text></g><g id="ent0020" class="cluster" data-qualified-name=".." data-source-line="44"><path fill="#FFF" d="M13.5,58.7373 L42.5,58.7373 A3.75,3.75 0 0 1 45,61.2373 L52,81.752 L1559.5,81.752 A2.5,2.5 0 0 1 1562,84.252 L1562,172.2673 A2.5,2.5 0 0 1 1559.5,174.7673 L13.5,174.7673 A2.5,2.5 0 0 1 11,172.2673 L11,61.2373 A2.5,2.5 0 0 1 13.5,58.7373" style="stroke:#000;stroke-width:1"/><line style="stroke:#000;stroke-width:1" x1="11" x2="52" y1="81.752" y2="81.752"/><text x="15" y="74.813" fill="#000" font-family="Verdana" font-size="14" font-weight="700" lengthAdjust="spacing" textLength="28">测试</text></g><g id="ent0002" class="entity" data-qualified-name="manifest . ...wxt.config.ts" data-source-line="16"><rect width="142.566" height="64.029" x="1013.72" y="259.767" fill="#FFF3E0" rx="2.5" ry="2.5" style="stroke:#e65100;stroke-width:1"/><rect width="15" height="10" x="1136.286" fill="#FFF3E0" style="stroke:#e65100;stroke-width:1" y="264.767"/><rect width="4" height="2" x="1134.286" fill="#FFF3E0" style="stroke:#e65100;stroke-width:1" y="266.767"/><rect width="4" height="2" x="1134.286" fill="#FFF3E0" style="stroke:#e65100;stroke-width:1" y="270.767"/><text x="1034.903" y="293.842" fill="#000" font-family="Verdana" font-size="14" font-weight="700" lengthAdjust="spacing" textLength="90.2">«changed»</text><text x="1028.72" y="310.857" fill="#000" font-family="Verdana" font-size="14" font-weight="700" lengthAdjust="spacing" textLength="102.566">wxt.config.ts</text></g><g id="ent0004" class="entity" data-qualified-name=".. util .src.core...origin-pattern.ts" data-source-line="20"><rect width="170.491" height="64.029" x="295.75" y="259.767" fill="#E8F5E9" rx="2.5" ry="2.5" style="stroke:#2e7d32;stroke-width:1"/><rect width="15" height="10" x="446.241" fill="#E8F5E9" style="stroke:#2e7d32;stroke-width:1" y="264.767"/><rect width="4" height="2" x="444.241" fill="#E8F5E9" style="stroke:#2e7d32;stroke-width:1" y="266.767"/><rect width="4" height="2" x="444.241" fill="#E8F5E9" style="stroke:#2e7d32;stroke-width:1" y="270.767"/><text x="347.609" y="293.842" fill="#000" font-family="Verdana" font-size="14" font-weight="700" lengthAdjust="spacing" textLength="56.773">«new»</text><text x="310.75" y="310.857" fill="#000" font-family="Verdana" font-size="14" font-weight="700" lengthAdjust="spacing" textLength="130.491">origin-pattern.ts</text></g><g id="ent0005" class="entity" data-qualified-name=".. util .src.core...host-permissions.ts" data-source-line="21"><rect width="195.661" height="64.029" x="673.17" y="424.797" fill="#E8F5E9" rx="2.5" ry="2.5" style="stroke:#2e7d32;stroke-width:1"/><rect width="15" height="10" x="848.831" fill="#E8F5E9" style="stroke:#2e7d32;stroke-width:1" y="429.797"/><rect width="4" height="2" x="846.831" fill="#E8F5E9" style="stroke:#2e7d32;stroke-width:1" y="431.797"/><rect width="4" height="2" x="846.831" fill="#E8F5E9" style="stroke:#2e7d32;stroke-width:1" y="435.797"/><text x="737.614" y="458.873" fill="#000" font-family="Verdana" font-size="14" font-weight="700" lengthAdjust="spacing" textLength="56.773">«new»</text><text x="688.17" y="475.887" fill="#000" font-family="Verdana" font-size="14" font-weight="700" lengthAdjust="spacing" textLength="155.661">host-permissions.ts</text></g><g id="ent0006" class="entity" data-qualified-name=".. util .src.core...openai-compat-config.ts" data-source-line="22"><rect width="232.48" height="64.029" x="500.76" y="259.767" fill="#E3F2FD" rx="2.5" ry="2.5" style="stroke:#1565c0;stroke-width:1"/><rect width="15" height="10" x="713.24" fill="#E3F2FD" style="stroke:#1565c0;stroke-width:1" y="264.767"/><rect width="4" height="2" x="711.24" fill="#E3F2FD" style="stroke:#1565c0;stroke-width:1" y="266.767"/><rect width="4" height="2" x="711.24" fill="#E3F2FD" style="stroke:#1565c0;stroke-width:1" y="270.767"/><text x="558.502" y="293.842" fill="#000" font-family="Verdana" font-size="14" font-weight="700" lengthAdjust="spacing" textLength="106.996">«untouched»</text><text x="515.76" y="310.857" fill="#000" font-family="Verdana" font-size="14" font-weight="700" lengthAdjust="spacing" textLength="192.48">openai-compat-config.ts</text></g><g id="ent0007" class="entity" data-qualified-name=".. util .src.core...engine-manager.ts" data-source-line="23"><rect width="189.112" height="64.029" x="768.44" y="259.767" fill="#E3F2FD" rx="2.5" ry="2.5" style="stroke:#1565c0;stroke-width:1"/><rect width="15" height="10" x="937.552" fill="#E3F2FD" style="stroke:#1565c0;stroke-width:1" y="264.767"/><rect width="4" height="2" x="935.552" fill="#E3F2FD" style="stroke:#1565c0;stroke-width:1" y="266.767"/><rect width="4" height="2" x="935.552" fill="#E3F2FD" style="stroke:#1565c0;stroke-width:1" y="270.767"/><text x="804.498" y="293.842" fill="#000" font-family="Verdana" font-size="14" font-weight="700" lengthAdjust="spacing" textLength="106.996">«untouched»</text><text x="783.44" y="310.857" fill="#000" font-family="Verdana" font-size="14" font-weight="700" lengthAdjust="spacing" textLength="149.112">engine-manager.ts</text></g><g id="ent0009" class="entity" data-qualified-name=".... .src.engines...openai-compat.ts" data-source-line="27"><rect width="177.45" height="64.029" x="499.27" y="589.827" fill="#FFF3E0" rx="2.5" ry="2.5" style="stroke:#e65100;stroke-width:1"/><rect width="15" height="10" x="656.72" fill="#FFF3E0" style="stroke:#e65100;stroke-width:1" y="594.827"/><rect width="4" height="2" x="654.72" fill="#FFF3E0" style="stroke:#e65100;stroke-width:1" y="596.827"/><rect width="4" height="2" x="654.72" fill="#FFF3E0" style="stroke:#e65100;stroke-width:1" y="600.827"/><text x="537.895" y="623.903" fill="#000" font-family="Verdana" font-size="14" font-weight="700" lengthAdjust="spacing" textLength="90.2">«changed»</text><text x="514.27" y="640.917" fill="#000" font-family="Verdana" font-size="14" font-weight="700" lengthAdjust="spacing" textLength="137.45">openai-compat.ts</text></g><g id="ent0010" class="entity" data-qualified-name=".... .src.engines...free-translate.ts" data-source-line="28"><rect width="168.707" height="64.029" x="111.65" y="589.827" fill="#E3F2FD" rx="2.5" ry="2.5" style="stroke:#1565c0;stroke-width:1"/><rect width="15" height="10" x="260.357" fill="#E3F2FD" style="stroke:#1565c0;stroke-width:1" y="594.827"/><rect width="4" height="2" x="258.357" fill="#E3F2FD" style="stroke:#1565c0;stroke-width:1" y="596.827"/><rect width="4" height="2" x="258.357" fill="#E3F2FD" style="stroke:#1565c0;stroke-width:1" y="600.827"/><text x="137.506" y="623.903" fill="#000" font-family="Verdana" font-size="14" font-weight="700" lengthAdjust="spacing" textLength="106.996">«untouched»</text><text x="126.65" y="640.917" fill="#000" font-family="Verdana" font-size="14" font-weight="700" lengthAdjust="spacing" textLength="128.707">free-translate.ts</text></g><g id="ent0011" class="entity" data-qualified-name=".... .src.engines...webllm.ts" data-source-line="29"><rect width="148.996" height="64.029" x="315.5" y="589.827" fill="#E3F2FD" rx="2.5" ry="2.5" style="stroke:#1565c0;stroke-width:1"/><rect width="15" height="10" x="444.496" fill="#E3F2FD" style="stroke:#1565c0;stroke-width:1" y="594.827"/><rect width="4" height="2" x="442.496" fill="#E3F2FD" style="stroke:#1565c0;stroke-width:1" y="596.827"/><rect width="4" height="2" x="442.496" fill="#E3F2FD" style="stroke:#1565c0;stroke-width:1" y="600.827"/><text x="331.5" y="623.903" fill="#000" font-family="Verdana" font-size="14" font-weight="700" lengthAdjust="spacing" textLength="106.996">«untouched»</text><text x="346.536" y="640.917" fill="#000" font-family="Verdana" font-size="14" font-weight="700" lengthAdjust="spacing" textLength="76.925">webllm.ts</text></g><g id="ent0012" class="entity" data-qualified-name=".... .src.engines...chrome-ai.ts" data-source-line="30"><rect width="148.996" height="64.029" x="121.5" y="730.857" fill="#E3F2FD" rx="2.5" ry="2.5" style="stroke:#1565c0;stroke-width:1"/><rect width="15" height="10" x="250.496" fill="#E3F2FD" style="stroke:#1565c0;stroke-width:1" y="735.857"/><rect width="4" height="2" x="248.496" fill="#E3F2FD" style="stroke:#1565c0;stroke-width:1" y="737.857"/><rect width="4" height="2" x="248.496" fill="#E3F2FD" style="stroke:#1565c0;stroke-width:1" y="741.857"/><text x="137.5" y="764.933" fill="#000" font-family="Verdana" font-size="14" font-weight="700" lengthAdjust="spacing" textLength="106.996">«untouched»</text><text x="141.253" y="781.947" fill="#000" font-family="Verdana" font-size="14" font-weight="700" lengthAdjust="spacing" textLength="99.49">chrome-ai.ts</text></g><g id="ent0014" class="entity" data-qualified-name="UI .. .src.components.. entrypoints...OpenAiCompatSection.tsx" data-source-line="34"><rect width="244.025" height="64.029" x="1260.99" y="589.827" fill="#FFF3E0" rx="2.5" ry="2.5" style="stroke:#e65100;stroke-width:1"/><rect width="15" height="10" x="1485.015" fill="#FFF3E0" style="stroke:#e65100;stroke-width:1" y="594.827"/><rect width="4" height="2" x="1483.015" fill="#FFF3E0" style="stroke:#e65100;stroke-width:1" y="596.827"/><rect width="4" height="2" x="1483.015" fill="#FFF3E0" style="stroke:#e65100;stroke-width:1" y="600.827"/><text x="1332.903" y="623.903" fill="#000" font-family="Verdana" font-size="14" font-weight="700" lengthAdjust="spacing" textLength="90.2">«changed»</text><text x="1275.99" y="640.917" fill="#000" font-family="Verdana" font-size="14" font-weight="700" lengthAdjust="spacing" textLength="204.025">OpenAiCompatSection.tsx</text></g><g id="ent0015" class="entity" data-qualified-name="UI .. .src.components.. entrypoints...PermissionRequiredNotice.tsx" data-source-line="35"><rect width="277.207" height="64.029" x="948.4" y="589.827" fill="#E8F5E9" rx="2.5" ry="2.5" style="stroke:#2e7d32;stroke-width:1"/><rect width="15" height="10" x="1205.607" fill="#E8F5E9" style="stroke:#2e7d32;stroke-width:1" y="594.827"/><rect width="4" height="2" x="1203.607" fill="#E8F5E9" style="stroke:#2e7d32;stroke-width:1" y="596.827"/><rect width="4" height="2" x="1203.607" fill="#E8F5E9" style="stroke:#2e7d32;stroke-width:1" y="600.827"/><text x="1053.617" y="623.903" fill="#000" font-family="Verdana" font-size="14" font-weight="700" lengthAdjust="spacing" textLength="56.773">«new»</text><text x="963.4" y="640.917" fill="#000" font-family="Verdana" font-size="14" font-weight="700" lengthAdjust="spacing" textLength="237.207">PermissionRequiredNotice.tsx</text></g><g id="ent0016" class="entity" data-qualified-name="UI .. .src.components.. entrypoints...SidePanel.App.tsx" data-source-line="36"><rect width="186.692" height="64.029" x="970.65" y="730.857" fill="#FFF3E0" rx="2.5" ry="2.5" style="stroke:#e65100;stroke-width:1"/><rect width="15" height="10" x="1137.342" fill="#FFF3E0" style="stroke:#e65100;stroke-width:1" y="735.857"/><rect width="4" height="2" x="1135.342" fill="#FFF3E0" style="stroke:#e65100;stroke-width:1" y="737.857"/><rect width="4" height="2" x="1135.342" fill="#FFF3E0" style="stroke:#e65100;stroke-width:1" y="741.857"/><text x="1013.896" y="764.933" fill="#000" font-family="Verdana" font-size="14" font-weight="700" lengthAdjust="spacing" textLength="90.2">«changed»</text><text x="985.65" y="781.947" fill="#000" font-family="Verdana" font-size="14" font-weight="700" lengthAdjust="spacing" textLength="146.692">SidePanel/App.tsx</text></g><g id="ent0017" class="entity" data-qualified-name="UI .. .src.components.. entrypoints...SelectionBubbleHost.tsx" data-source-line="37"><rect width="231.734" height="64.029" x="1192.13" y="730.857" fill="#FFF3E0" rx="2.5" ry="2.5" style="stroke:#e65100;stroke-width:1"/><rect width="15" height="10" x="1403.864" fill="#FFF3E0" style="stroke:#e65100;stroke-width:1" y="735.857"/><rect width="4" height="2" x="1401.864" fill="#FFF3E0" style="stroke:#e65100;stroke-width:1" y="737.857"/><rect width="4" height="2" x="1401.864" fill="#FFF3E0" style="stroke:#e65100;stroke-width:1" y="741.857"/><text x="1257.897" y="764.933" fill="#000" font-family="Verdana" font-size="14" font-weight="700" lengthAdjust="spacing" textLength="90.2">«changed»</text><text x="1207.13" y="781.947" fill="#000" font-family="Verdana" font-size="14" font-weight="700" lengthAdjust="spacing" textLength="191.734">SelectionBubbleHost.tsx</text></g><g id="ent0019" class="entity" data-qualified-name=".... .src.utils...error.ts" data-source-line="41"><rect width="132.2" height="64.029" x="1017.9" y="424.797" fill="#FFF3E0" rx="2.5" ry="2.5" style="stroke:#e65100;stroke-width:1"/><rect width="15" height="10" x="1130.1" fill="#FFF3E0" style="stroke:#e65100;stroke-width:1" y="429.797"/><rect width="4" height="2" x="1128.1" fill="#FFF3E0" style="stroke:#e65100;stroke-width:1" y="431.797"/><rect width="4" height="2" x="1128.1" fill="#FFF3E0" style="stroke:#e65100;stroke-width:1" y="435.797"/><text x="1033.9" y="458.873" fill="#000" font-family="Verdana" font-size="14" font-weight="700" lengthAdjust="spacing" textLength="90.2">«changed»</text><text x="1049.236" y="475.887" fill="#000" font-family="Verdana" font-size="14" font-weight="700" lengthAdjust="spacing" textLength="59.527">error.ts</text></g><g id="ent0021" class="entity" data-qualified-name="...tests.unit.core.origin-pattern.spec.ts" data-source-line="45"><rect width="344.015" height="64.029" x="439.99" y="94.737" fill="#E8F5E9" rx="2.5" ry="2.5" style="stroke:#2e7d32;stroke-width:1"/><rect width="15" height="10" x="764.005" fill="#E8F5E9" style="stroke:#2e7d32;stroke-width:1" y="99.737"/><rect width="4" height="2" x="762.005" fill="#E8F5E9" style="stroke:#2e7d32;stroke-width:1" y="101.737"/><rect width="4" height="2" x="762.005" fill="#E8F5E9" style="stroke:#2e7d32;stroke-width:1" y="105.737"/><text x="578.611" y="128.813" fill="#000" font-family="Verdana" font-size="14" font-weight="700" lengthAdjust="spacing" textLength="56.773">«new»</text><text x="454.99" y="145.827" fill="#000" font-family="Verdana" font-size="14" font-weight="700" lengthAdjust="spacing" textLength="304.015">tests/unit/core/origin-pattern.spec.ts</text></g><g id="ent0022" class="entity" data-qualified-name="...tests.unit.core.host-permissions.spec.ts" data-source-line="46"><rect width="369.185" height="64.029" x="819.41" y="94.737" fill="#E8F5E9" rx="2.5" ry="2.5" style="stroke:#2e7d32;stroke-width:1"/><rect width="15" height="10" x="1168.595" fill="#E8F5E9" style="stroke:#2e7d32;stroke-width:1" y="99.737"/><rect width="4" height="2" x="1166.595" fill="#E8F5E9" style="stroke:#2e7d32;stroke-width:1" y="101.737"/><rect width="4" height="2" x="1166.595" fill="#E8F5E9" style="stroke:#2e7d32;stroke-width:1" y="105.737"/><text x="970.616" y="128.813" fill="#000" font-family="Verdana" font-size="14" font-weight="700" lengthAdjust="spacing" textLength="56.773">«new»</text><text x="834.41" y="145.827" fill="#000" font-family="Verdana" font-size="14" font-weight="700" lengthAdjust="spacing" textLength="329.185">tests/unit/core/host-permissions.spec.ts</text></g><g id="ent0023" class="entity" data-qualified-name="...tests.unit.engines.openai-compat.spec.ts" data-source-line="47"><rect width="378.29" height="64.029" x="26.85" y="94.737" fill="#FFF3E0" rx="2.5" ry="2.5" style="stroke:#e65100;stroke-width:1"/><rect width="15" height="10" x="385.14" fill="#FFF3E0" style="stroke:#e65100;stroke-width:1" y="99.737"/><rect width="4" height="2" x="383.14" fill="#FFF3E0" style="stroke:#e65100;stroke-width:1" y="101.737"/><rect width="4" height="2" x="383.14" fill="#FFF3E0" style="stroke:#e65100;stroke-width:1" y="105.737"/><text x="165.895" y="128.813" fill="#000" font-family="Verdana" font-size="14" font-weight="700" lengthAdjust="spacing" textLength="90.2">«changed»</text><text x="41.85" y="145.827" fill="#000" font-family="Verdana" font-size="14" font-weight="700" lengthAdjust="spacing" textLength="338.29">tests/unit/engines/openai-compat.spec.ts</text></g><g id="ent0024" class="entity" data-qualified-name="...tests.e2e.permissions-flow.spec.ts" data-source-line="48"><rect width="322.618" height="64.029" x="1223.69" y="94.737" fill="#E8F5E9" rx="2.5" ry="2.5" style="stroke:#2e7d32;stroke-width:1"/><rect width="15" height="10" x="1526.308" fill="#E8F5E9" style="stroke:#2e7d32;stroke-width:1" y="99.737"/><rect width="4" height="2" x="1524.308" fill="#E8F5E9" style="stroke:#2e7d32;stroke-width:1" y="101.737"/><rect width="4" height="2" x="1524.308" fill="#E8F5E9" style="stroke:#2e7d32;stroke-width:1" y="105.737"/><text x="1351.613" y="128.813" fill="#000" font-family="Verdana" font-size="14" font-weight="700" lengthAdjust="spacing" textLength="56.773">«new»</text><text x="1238.69" y="145.827" fill="#000" font-family="Verdana" font-size="14" font-weight="700" lengthAdjust="spacing" textLength="282.618">tests/e2e/permissions-flow.spec.ts</text></g><g id="lnk25" class="link" data-entity-1="ent0004" data-entity-2="ent0005" data-link-type="dependency" data-source-line="52"><path id="origin-pattern.ts-to-host-permissions.ts" fill="none" d="M435.89,324.1573 C450.96,332.2773 467.43,340.7173 483,347.7973 C546.56,376.6973 615.6034,402.5979 672.5634,422.6379" style="stroke:#000;stroke-width:1;stroke-dasharray:7,7"/><polygon fill="#000" points="677.28 424.297 670.118 417.537 672.563 422.638 667.463 425.084 677.28 424.297" style="stroke:#000;stroke-width:1;stroke-linejoin:miter;stroke-miterlimit:10"/><text x="538.01" y="369.867" fill="#000" font-family="Verdana" font-size="13" lengthAdjust="spacing" textLength="78.241">生成 pattern</text></g><g id="lnk26" class="link" data-entity-1="ent0004" data-entity-2="ent0009" data-link-type="dependency" data-source-line="53"><path id="origin-pattern.ts-to-openai-compat.ts" fill="none" d="M400.85,324.2373 C440.41,386.9473 526.0322,522.6285 565.5422,585.2585" style="stroke:#000;stroke-width:1;stroke-dasharray:7,7"/><polygon fill="#000" points="568.21 589.487 566.791 579.741 565.542 585.259 560.025 584.01 568.21 589.487" style="stroke:#000;stroke-width:1;stroke-linejoin:miter;stroke-miterlimit:10"/><text x="519.43" y="462.387" fill="#000" font-family="Verdana" font-size="13" lengthAdjust="spacing" textLength="78.241">生成 pattern</text></g><g id="lnk27" class="link" data-entity-1="ent0005" data-entity-2="ent0009" data-link-type="dependency" data-source-line="54"><path id="host-permissions.ts-to-openai-compat.ts" fill="none" d="M673.03,482.5373 C652.25,491.6773 632.06,504.0773 617,520.8273 C600.08,539.6473 593.6654,562.8431 590.7154,584.4831" style="stroke:#000;stroke-width:1;stroke-dasharray:7,7"/><polygon fill="#000" points="590.04 589.437 595.219 581.06 590.715 584.483 587.292 579.98 590.04 589.437" style="stroke:#000;stroke-width:1;stroke-linejoin:miter;stroke-miterlimit:10"/><text x="618" y="534.897" fill="#000" font-family="Verdana" font-size="13" lengthAdjust="spacing" textLength="109.548">contains/request</text></g><g id="lnk28" class="link" data-entity-1="ent0005" data-entity-2="ent0014" data-link-type="dependency" data-source-line="55"><path id="host-permissions.ts-to-OpenAiCompatSection.tsx" fill="none" d="M761.51,489.1073 C758.54,505.7673 758.73,525.3473 771,537.8273 C780.19,547.1773 1230.31,542.5273 1243,545.8273 C1276.76,554.6073 1307.0943,570.3864 1333.4443,586.7764" style="stroke:#000;stroke-width:1;stroke-dasharray:7,7"/><polygon fill="#000" points="1337.69 589.417 1332.16 581.267 1333.444 586.776 1327.935 588.06 1337.69 589.417" style="stroke:#000;stroke-width:1;stroke-linejoin:miter;stroke-miterlimit:10"/><text x="772" y="534.897" fill="#000" font-family="Verdana" font-size="13" lengthAdjust="spacing" textLength="71.557">UI 授权按钮</text></g><g id="lnk29" class="link" data-entity-1="ent0019" data-entity-2="ent0009" data-link-type="dependency" data-source-line="56"><path id="error.ts-to-openai-compat.ts" fill="none" d="M1030.09,489.2273 C1012.69,498.1373 992.98,506.9973 974,512.8273 C948.28,520.7273 940.28,515.0873 914,520.8273 C868.74,530.7173 761.748,564.3606 681.708,590.2106" style="stroke:#000;stroke-width:1;stroke-dasharray:7,7"/><polygon fill="#000" points="676.95 591.747 686.744 592.788 681.708 590.211 684.285 585.175 676.95 591.747" style="stroke:#000;stroke-width:1;stroke-linejoin:miter;stroke-miterlimit:10"/><text x="915" y="534.897" fill="#000" font-family="Verdana" font-size="13" lengthAdjust="spacing" textLength="161.395">PermissionRequiredError</text></g><g id="lnk30" class="link" data-entity-1="ent0019" data-entity-2="ent0015" data-link-type="dependency" data-source-line="57"><path id="error.ts-to-PermissionRequiredNotice.tsx" fill="none" d="M1084.58,489.2473 C1085.11,518.1173 1085.7981,555.6681 1086.3281,584.5081" style="stroke:#000;stroke-width:1;stroke-dasharray:7,7"/><polygon fill="#000" points="1086.42 589.507 1090.254 580.435 1086.328 584.508 1082.255 580.582 1086.42 589.507" style="stroke:#000;stroke-width:1;stroke-linejoin:miter;stroke-miterlimit:10"/><text x="1086.41" y="534.897" fill="#000" font-family="Verdana" font-size="13" lengthAdjust="spacing" textLength="78">识别错误类型</text></g><g id="lnk31" class="link" data-entity-1="ent0015" data-entity-2="ent0016" data-link-type="dependency" data-source-line="58"><path id="PermissionRequiredNotice.tsx-to-SidePanel/App.tsx" fill="none" d="M1081.84,654.0473 C1078.05,676.9373 1073.7474,702.9746 1069.9574,725.8446" style="stroke:#000;stroke-width:1;stroke-dasharray:7,7"/><polygon fill="#000" points="1069.14 730.777 1074.558 722.552 1069.957 725.845 1066.665 721.244 1069.14 730.777" style="stroke:#000;stroke-width:1;stroke-linejoin:miter;stroke-miterlimit:10"/><text x="1077.88" y="697.927" fill="#000" font-family="Verdana" font-size="13" lengthAdjust="spacing" textLength="61.991">未授权 UX</text></g><g id="lnk32" class="link" data-entity-1="ent0015" data-entity-2="ent0017" data-link-type="dependency" data-source-line="59"><path id="PermissionRequiredNotice.tsx-to-SelectionBubbleHost.tsx" fill="none" d="M1136.87,654.2173 C1173.03,676.9673 1217.4976,704.9351 1253.6976,727.7051" style="stroke:#000;stroke-width:1;stroke-dasharray:7,7"/><polygon fill="#000" points="1257.93 730.367 1252.441 722.189 1253.698 727.705 1248.182 728.961 1257.93 730.367" style="stroke:#000;stroke-width:1;stroke-linejoin:miter;stroke-miterlimit:10"/><text x="1211.73" y="697.927" fill="#000" font-family="Verdana" font-size="13" lengthAdjust="spacing" textLength="61.991">未授权 UX</text></g><g id="lnk33" class="link" data-entity-1="ent0002" data-entity-2="ent0005" data-link-type="dependency" data-source-line="61"><path id="wxt.config.ts-to-host-permissions.ts" fill="none" d="M1024.46,324.2173 C968.94,353.0373 891.5974,393.1931 836.0574,422.0331" style="stroke:#000;stroke-width:1;stroke-dasharray:7,7"/><polygon fill="#000" points="831.62 424.337 841.451 423.74 836.057 422.033 837.764 416.64 831.62 424.337" style="stroke:#000;stroke-width:1;stroke-linejoin:miter;stroke-miterlimit:10"/><text x="957.12" y="369.867" fill="#000" font-family="Verdana" font-size="13" lengthAdjust="spacing" textLength="174.319">optional_host_permissions</text></g><g id="lnk34" class="link" data-entity-1="ent0021" data-entity-2="ent0004" data-link-type="dependency" data-source-line="64"><path id="tests/unit/core/origin-pattern.spec.ts-to-origin-pattern.ts" fill="none" d="M565.15,159.1373 C540.55,175.7573 509.99,196.6473 483,215.7673 C463.09,229.8773 445.2886,242.8823 426.9586,256.4523" style="stroke:#000;stroke-width:1;stroke-dasharray:7,7"/><polygon fill="#000" points="422.94 259.427 432.553 257.287 426.959 256.452 427.793 250.857 422.94 259.427" style="stroke:#000;stroke-width:1;stroke-linejoin:miter;stroke-miterlimit:10"/><text x="519.16" y="204.837" fill="#000" font-family="Verdana" font-size="13" lengthAdjust="spacing" textLength="26">覆盖</text></g><g id="lnk35" class="link" data-entity-1="ent0022" data-entity-2="ent0005" data-link-type="dependency" data-source-line="65"><path id="tests/unit/core/host-permissions.spec.ts-to-host-permissions.ts" fill="none" d="M1105.84,159.2473 C1131.9,172.4173 1156.83,190.6973 1172,215.7673 C1202.38,265.9773 1197.72,295.0573 1172,347.7973 C1164.09,364.0173 1156.89,366.4273 1140,372.7973 C1111.26,383.6373 1032.19,375.1173 1002,380.7973 C950.51,390.4873 899.2908,406.7337 855.3608,422.6537" style="stroke:#000;stroke-width:1;stroke-dasharray:7,7"/><polygon fill="#000" points="850.66 424.357 860.484 425.052 855.361 422.654 857.759 417.53 850.66 424.357" style="stroke:#000;stroke-width:1;stroke-linejoin:miter;stroke-miterlimit:10"/><text x="1194.07" y="297.357" fill="#000" font-family="Verdana" font-size="13" lengthAdjust="spacing" textLength="26">覆盖</text></g><g id="lnk36" class="link" data-entity-1="ent0023" data-entity-2="ent0009" data-link-type="dependency" data-source-line="66"><path id="tests/unit/engines/openai-compat.spec.ts-to-openai-compat.ts" fill="none" d="M210.19,159.2373 C198.6,232.9673 181.5,417.7573 280,512.8273 C345.45,576.0073 397.82,511.3373 482,545.8273 C507.66,556.3473 529.2216,570.949 548.7616,586.539" style="stroke:#000;stroke-width:1;stroke-dasharray:7,7"/><polygon fill="#000" points="552.67 589.657 548.13 580.918 548.762 586.539 543.14 587.171 552.67 589.657" style="stroke:#000;stroke-width:1;stroke-linejoin:miter;stroke-miterlimit:10"/><text x="211.32" y="369.867" fill="#000" font-family="Verdana" font-size="13" lengthAdjust="spacing" textLength="26">覆盖</text></g><g id="lnk37" class="link" data-entity-1="ent0024" data-entity-2="ent0014" data-link-type="dependency" data-source-line="67"><path id="tests/e2e/permissions-flow.spec.ts-to-OpenAiCompatSection.tsx" fill="none" d="M1384.87,158.9773 C1384.51,247.6773 1383.5102,495.5173 1383.1502,584.4473" style="stroke:#000;stroke-width:1;stroke-dasharray:7,7"/><polygon fill="#000" points="1383.13 589.447 1387.166 580.464 1383.15 584.447 1379.167 580.431 1383.13 589.447" style="stroke:#000;stroke-width:1;stroke-linejoin:miter;stroke-miterlimit:10"/><text x="1385.07" y="369.867" fill="#000" font-family="Verdana" font-size="13" lengthAdjust="spacing" textLength="39">端到端</text></g><g class="legend" data-source-line="69"><rect width="182.614" height="82.059" x="1382.386" y="824.887" fill="none" rx="7.5" ry="7.5" style="stroke:#000;stroke-width:1"/><text x="1392.171" y="845.962" fill="#000" font-family="Verdana" font-size="14" font-weight="700" lengthAdjust="spacing" textLength="28">颜色</text><text x="1498.941" y="845.962" fill="#000" font-family="Verdana" font-size="14" font-weight="700" lengthAdjust="spacing" textLength="28">语义</text><rect width="106.77" height="17.015" x="1387.386" fill="#E8F5E9" style="stroke:none;stroke-width:1" y="848.902"/><text x="1387.386" y="862.977" fill="#000" font-family="Verdana" font-size="14" lengthAdjust="spacing" textLength="100.769">■&lt;/#E8F5E9&gt;</text><text x="1499.078" y="862.977" fill="#000" font-family="Verdana" font-size="14" lengthAdjust="spacing" textLength="28">新增</text><rect width="106.77" height="17.015" x="1387.386" fill="#FFF3E0" style="stroke:none;stroke-width:1" y="865.917"/><text x="1387.386" y="879.992" fill="#000" font-family="Verdana" font-size="14" lengthAdjust="spacing" textLength="99.107">■&lt;/#FFF3E0&gt;</text><text x="1499.078" y="879.992" fill="#000" font-family="Verdana" font-size="14" lengthAdjust="spacing" textLength="28">修改</text><rect width="106.77" height="17.015" x="1387.386" fill="#E3F2FD" style="stroke:none;stroke-width:1" y="882.931"/><text x="1387.386" y="897.006" fill="#000" font-family="Verdana" font-size="14" lengthAdjust="spacing" textLength="101.849">■&lt;/#E3F2FD&gt;</text><text x="1499.078" y="897.006" fill="#000" font-family="Verdana" font-size="14" lengthAdjust="spacing" textLength="56">保持不变</text><line style="stroke:#000;stroke-width:1" x1="1387.386" x2="1560" y1="831.887" y2="831.887"/><line style="stroke:#000;stroke-width:1" x1="1387.386" x2="1560" y1="848.902" y2="848.902"/><line style="stroke:#000;stroke-width:1" x1="1387.386" x2="1560" y1="865.917" y2="865.917"/><line style="stroke:#000;stroke-width:1" x1="1387.386" x2="1560" y1="882.931" y2="882.931"/><line style="stroke:#000;stroke-width:1" x1="1387.386" x2="1560" y1="899.946" y2="899.946"/><line style="stroke:#000;stroke-width:1" x1="1387.386" x2="1387.386" y1="831.887" y2="899.946"/><line style="stroke:#000;stroke-width:1" x1="1494.156" x2="1494.156" y1="831.887" y2="899.946"/><line style="stroke:#000;stroke-width:1" x1="1560" x2="1560" y1="831.887" y2="899.946"/></g><?plantuml-src bLPTRnD757tVNt5B7jfAjJSa3MrH6Ya4M-qBe4P8bQeAhTStzeZrp7Ps78CA4YWXSaGQ40rf4II4I1H4r3WjXK8T5Qa_1NdNwoV-GcS_dApNQsyOIxR7S-RSS--SEzuFH1ah2AQX4Qe88Wm4v-aZU-ENrhyRxejr-Ezlc1_DVWhEnaBdtcrdxMNxsQApzhfpRSjTMR3l_wKeraL2JOrh5IXe-iKIPrLQd646up2Id_PU4OJEAYQZI0Nyg02SwiLFJbAiJKr1C4Pod-SdSbzuCCQBo1CW0MuizzdfyR4aEhsiqH8MVVn8FfyVput6wQAGCEo9YUEZeqbqLIfOLI_xw97SU7uiVpfE5uK4TCSdJapCU7HvHiMik2phMs16KRcgAAOCe9KGZbKqIkRG4g22ixbeD_yvvfVdkzebaTKPdIEbhB2-XuZQdktErYlxpG9K1J7W8ulhgiuugX-798oJ4g4PKnC2EGs9_2fwgsLcYOo9l48iYp1gnTUPYLGZ6U_SD97f4HF9rKCYbM4m8tEHedW29YhPth_h_BngxswsL_S2pS5swr1sD71V-X8mnn4pWclKCZI1oPfgM32CIlAQNkQiWXcDf4Wz_pMqcukjvijkRKC7M-ed83_uPPCHRzOLVbOAdoOplkvPr8MigenmgK__kOEYVuC_L0d7uXacY8vTyC4Hp98YdjCe6kgqQIPIpQ8H13fLBHGC_4gUQJykcbDdxPxRQBJ_QDgRDuEqFFCSve2SCpxSSozkkesx8Ln8xrfgbH8HM2zcESj4FUwh-9O-7wPiwjgbroQHJJq52ZRY6AgH49avWzNwuyWiFuJWyhDlF6y_Rof9BHIER7PgG0_vuoIqrnuwzTiGRasbwdTzT_HJ3GwRIYNxMCZxtbAvj9wiJIhPG5DBCjaWpcfT_ZyuAykTExjAn3tnaIgilobo7bagv_1cEWbkOyckxqHjhwJiyMaJMi-NwJnu5gGCvxyz6j6W3ernAV4xFvxeCAynqukW6HSyq8K8o7DqqB3mTkaEkDixSlPkl-u-UWppn8C0ntc2DN0MRxbFhh_RNrQEtDIHWnteRNa0losrxwyhxz7tHyauWJNbOZYA2NjPXzyQlQSph4tQEmsxlYVV5SN04j8Yo7ALXRoUhdm9dUq7xlAVtZUtyNlhzJ9SyNw7oV0XQEhj-jQasft81MTzpzxUF405ppOXAfp8XTQRNVceTiZbFx9qkOA9ZzfmLgwtNlrat_fLOgMoG9_oFm00?></g></svg>