<svg xmlns="http://www.w3.org/2000/svg" xmlns:xlink="http://www.w3.org/1999/xlink" width="718" height="1607" contentStyleType="text/css" data-diagram-type="ACTIVITY" style="width:718px;height:1607px;background:#fafafa" preserveAspectRatio="none" version="1.1" viewBox="0 0 718 1607" zoomAndPan="magnify"><?plantuml 1.2026.6?><g><rect style="stroke:none;stroke-width:1" width="718" height="1607" x="0" y="0" fill="#FAFAFA"/><g class="title" data-source-line="2"><text x="140.334" y="37.118" fill="#000" font-family="Verdana" font-size="22" font-weight="700" lengthAdjust="spacing" textLength="436.144">TDD 6 轮 tracer bullet · v0.4 权限收窄</text></g><ellipse cx="229.424" cy="67.737" fill="#FFF" rx="10" ry="10" style="stroke:#000;stroke-width:1"/><rect style="stroke:#000;stroke-width:1" width="362.881" height="192.767" x="47.984" y="87.737" fill="#FFF"/><path fill="none" d="M275.77,87.7373 L275.77,97.752 L265.77,107.752 L47.9839,107.752" style="stroke:#000;stroke-width:1"/><text x="50.984" y="102.813" fill="#000" font-family="Verdana" font-size="14" lengthAdjust="spacing" textLength="217.786">Round 1 · origin-pattern 纯函数</text><rect style="stroke:#1976d2;stroke-width:1" width="342.881" height="34.584" x="57.984" y="124.752" fill="#FFF" rx="12.5" ry="12.5"/><text x="67.984" y="146.816" fill="#000" font-family="Verdana" font-size="12" lengthAdjust="spacing" textLength="322.881">RED · tests/unit/core/origin-pattern.spec.ts (8 cases)</text><rect style="stroke:#1976d2;stroke-width:1" width="227.791" height="34.584" x="115.529" y="179.336" fill="#FFF" rx="12.5" ry="12.5"/><text x="125.529" y="201.4" fill="#000" font-family="Verdana" font-size="12" lengthAdjust="spacing" textLength="207.791">GREEN · src/core/origin-pattern.ts</text><rect style="stroke:#1976d2;stroke-width:1" width="97.144" height="34.584" x="180.852" y="233.92" fill="#FFF" rx="12.5" ry="12.5"/><text x="190.852" y="255.984" fill="#000" font-family="Verdana" font-size="12" lengthAdjust="spacing" textLength="77.144">单测 8/8 通过</text><rect style="stroke:#000;stroke-width:1" width="669.357" height="240.179" x="34.455" y="290.504" fill="#FFF"/><path fill="none" d="M264.9683,290.5039 L264.9683,300.5186 L254.9683,310.5186 L34.4546,310.5186" style="stroke:#000;stroke-width:1"/><text x="37.455" y="305.579" fill="#000" font-family="Verdana" font-size="14" lengthAdjust="spacing" textLength="220.514">Round 2 · host-permissions util</text><path fill="#FFF" d="M434.394,320.5186 L434.394,361.0168 L414.394,365.0168 L434.394,369.0168 L434.394,409.5151 A0,0 0 0 0 434.394,409.5151 L693.812,409.5151 A0,0 0 0 0 693.812,409.5151 L693.812,330.5186 L683.812,320.5186 L434.394,320.5186 A0,0 0 0 0 434.394,320.5186" style="stroke:#000;stroke-width:1"/><path fill="#FFF" d="M683.812,320.5186 L683.812,330.5186 L693.812,330.5186 L683.812,320.5186" style="stroke:#000;stroke-width:1"/><text x="440.394" y="338.588" fill="#000" font-family="Verdana" font-size="13" lengthAdjust="spacing" textLength="39">覆盖：</text><text x="440.394" y="354.388" fill="#000" font-family="Verdana" font-size="13" lengthAdjust="spacing" textLength="238.418">・ chrome.permissions.contains 包装</text><text x="440.394" y="370.187" fill="#000" font-family="Verdana" font-size="13" lengthAdjust="spacing" textLength="233.289">・ chrome.permissions.request 包装</text><text x="440.394" y="385.986" fill="#000" font-family="Verdana" font-size="13" lengthAdjust="spacing" textLength="197.203">・ onAdded / onRemoved 订阅</text><text x="440.394" y="401.786" fill="#000" font-family="Verdana" font-size="13" lengthAdjust="spacing" textLength="197.349">・ chrome API 缺席时 fail open</text><rect style="stroke:#1976d2;stroke-width:1" width="369.94" height="34.584" x="44.455" y="347.725" fill="#FFF" rx="12.5" ry="12.5"/><text x="54.455" y="369.789" fill="#000" font-family="Verdana" font-size="12" lengthAdjust="spacing" textLength="349.94">RED · tests/unit/core/host-permissions.spec.ts (10 cases)</text><rect style="stroke:#1976d2;stroke-width:1" width="247.221" height="34.584" x="105.814" y="429.515" fill="#FFF" rx="12.5" ry="12.5"/><text x="115.814" y="451.58" fill="#000" font-family="Verdana" font-size="12" lengthAdjust="spacing" textLength="227.221">GREEN · src/core/host-permissions.ts</text><rect style="stroke:#1976d2;stroke-width:1" width="112.402" height="34.584" x="173.223" y="484.099" fill="#FFF" rx="12.5" ry="12.5"/><text x="183.223" y="506.164" fill="#000" font-family="Verdana" font-size="12" lengthAdjust="spacing" textLength="92.402">单测 18/18 通过</text><rect style="stroke:#000;stroke-width:1" width="555.333" height="208.581" x="56.456" y="540.683" fill="#FFF"/><path fill="none" d="M370.0952,540.6831 L370.0952,550.6978 L360.0952,560.6978 L56.4565,560.6978" style="stroke:#000;stroke-width:1"/><text x="59.456" y="555.758" fill="#000" font-family="Verdana" font-size="14" lengthAdjust="spacing" textLength="303.639">Round 3 · openai-compat.isAvailable() 收紧</text><path fill="#FFF" d="M385.5679,570.6978 L385.5679,595.3967 L365.5679,599.3967 L385.5679,603.3967 L385.5679,628.0957 A0,0 0 0 0 385.5679,628.0957 L601.79,628.0957 A0,0 0 0 0 601.79,628.0957 L601.79,580.6978 L591.79,570.6978 L385.5679,570.6978 A0,0 0 0 0 385.5679,570.6978" style="stroke:#000;stroke-width:1"/><path fill="#FFF" d="M591.79,570.6978 L591.79,580.6978 L601.79,580.6978 L591.79,570.6978" style="stroke:#000;stroke-width:1"/><text x="391.568" y="588.768" fill="#000" font-family="Verdana" font-size="13" lengthAdjust="spacing" textLength="164.131">・ 三项齐 + 已授权 → true</text><text x="391.568" y="604.567" fill="#000" font-family="Verdana" font-size="13" lengthAdjust="spacing" textLength="167.953">・ 三项齐 + 未授权 → false</text><text x="391.568" y="620.366" fill="#000" font-family="Verdana" font-size="13" lengthAdjust="spacing" textLength="195.222">・ isAvailable 每次都动态查权限</text><rect style="stroke:#1976d2;stroke-width:1" width="272.287" height="34.584" x="93.281" y="582.105" fill="#FFF" rx="12.5" ry="12.5"/><text x="103.281" y="604.169" fill="#000" font-family="Verdana" font-size="12" lengthAdjust="spacing" textLength="252.287">RED · openai-compat.spec.ts 新增 3 cases</text><rect style="stroke:#1976d2;stroke-width:1" width="325.935" height="34.584" x="66.457" y="648.096" fill="#FFF" rx="12.5" ry="12.5"/><text x="76.457" y="670.16" fill="#000" font-family="Verdana" font-size="12" lengthAdjust="spacing" textLength="305.935">GREEN · openai-compat.ts 集成 hasHostPermission</text><rect style="stroke:#1976d2;stroke-width:1" width="147.301" height="34.584" x="155.774" y="702.68" fill="#FFF" rx="12.5" ry="12.5"/><text x="165.774" y="724.744" fill="#000" font-family="Verdana" font-size="12" lengthAdjust="spacing" textLength="127.301">单测 196+/196+ 通过</text><rect style="stroke:#000;stroke-width:1" width="362.846" height="207.351" x="48.002" y="759.264" fill="#FFF"/><path fill="none" d="M366.938,759.2637 L366.938,769.2783 L356.938,779.2783 L48.0015,779.2783" style="stroke:#000;stroke-width:1"/><text x="51.002" y="774.339" fill="#000" font-family="Verdana" font-size="14" lengthAdjust="spacing" textLength="308.937">Round 4 · openai-compat.run() 抛结构化错误</text><rect style="stroke:#1976d2;stroke-width:1" width="295.256" height="34.584" x="81.796" y="796.278" fill="#FFF" rx="12.5" ry="12.5"/><text x="91.796" y="818.343" fill="#000" font-family="Verdana" font-size="12" lengthAdjust="spacing" textLength="275.256">RED · 新增 2 cases (PermissionRequiredError)</text><rect style="stroke:#1976d2;stroke-width:1" width="342.846" height="49.168" x="58.002" y="850.862" fill="#FFF" rx="12.5" ry="12.5"/><text x="68.001" y="872.927" fill="#000" font-family="Verdana" font-size="12" lengthAdjust="spacing" textLength="322.846">GREEN · src/utils/error.ts 加 PermissionRequiredError</text><text x="68.001" y="887.511" fill="#000" font-family="Verdana" font-size="12" lengthAdjust="spacing" textLength="82.512">+ engine 抛错</text><rect style="stroke:#1976d2;stroke-width:1" width="68" height="34.584" x="195.424" y="920.03" fill="#FFF" rx="12.5" ry="12.5"/><text x="205.424" y="942.095" fill="#000" font-family="Verdana" font-size="12" lengthAdjust="spacing" textLength="48">单测通过</text><rect style="stroke:#000;stroke-width:1" width="416.453" height="192.767" x="21.198" y="976.614" fill="#FFF"/><path fill="none" d="M315.4224,976.6143 L315.4224,986.6289 L305.4224,996.6289 L21.1978,996.6289" style="stroke:#000;stroke-width:1"/><text x="24.198" y="991.689" fill="#000" font-family="Verdana" font-size="14" lengthAdjust="spacing" textLength="284.225">Round 5 · OpenAiCompatSection 授权 UI</text><rect style="stroke:#1976d2;stroke-width:1" width="262.783" height="34.584" x="98.033" y="1013.629" fill="#FFF" rx="12.5" ry="12.5"/><text x="108.033" y="1035.693" fill="#000" font-family="Verdana" font-size="12" lengthAdjust="spacing" textLength="242.783">RED · 组件测试 · 未授权时展示『授权』按钮</text><rect style="stroke:#1976d2;stroke-width:1" width="396.453" height="34.584" x="31.198" y="1068.213" fill="#FFF" rx="12.5" ry="12.5"/><text x="41.198" y="1090.277" fill="#000" font-family="Verdana" font-size="12" lengthAdjust="spacing" textLength="376.453">GREEN · 组件消费 hasHostPermission + requestHostPermission</text><rect style="stroke:#1976d2;stroke-width:1" width="68" height="34.584" x="195.424" y="1122.797" fill="#FFF" rx="12.5" ry="12.5"/><text x="205.424" y="1144.861" fill="#000" font-family="Verdana" font-size="12" lengthAdjust="spacing" textLength="48">单测通过</text><rect style="stroke:#000;stroke-width:1" width="436.849" height="316.519" x="11" y="1179.82" fill="#FFF"/><path fill="none" d="M437.8486,1179.8203 L437.8486,1189.835 L427.8486,1199.835 L11,1199.835" style="stroke:#000;stroke-width:1"/><text x="14" y="1194.896" fill="#000" font-family="Verdana" font-size="14" lengthAdjust="spacing" textLength="416.849">Round 6 · SidePanel/Bubble 错误 UX + manifest 变更 + E2E</text><rect style="stroke:#1976d2;stroke-width:1" width="401.076" height="34.584" x="28.886" y="1216.835" fill="#FFF" rx="12.5" ry="12.5"/><text x="38.886" y="1238.899" fill="#000" font-family="Verdana" font-size="12" lengthAdjust="spacing" textLength="381.076">RED · SidePanel/Bubble 拿到 PermissionRequiredError 显示 CTA</text><rect style="stroke:#1976d2;stroke-width:1" width="287.469" height="34.584" x="85.69" y="1271.419" fill="#FFF" rx="12.5" ry="12.5"/><text x="95.69" y="1293.483" fill="#000" font-family="Verdana" font-size="12" lengthAdjust="spacing" textLength="267.469">GREEN · 新增 PermissionRequiredNotice 组件</text><rect style="stroke:#1976d2;stroke-width:1" width="326.451" height="34.584" x="66.199" y="1326.003" fill="#FFF" rx="12.5" ry="12.5"/><text x="76.199" y="1348.067" fill="#000" font-family="Verdana" font-size="12" lengthAdjust="spacing" textLength="306.451">manifest: &lt;all_urls&gt; → optional_host_permissions</text><rect style="stroke:#1976d2;stroke-width:1" width="261.711" height="49.168" x="98.569" y="1380.587" fill="#FFF" rx="12.5" ry="12.5"/><text x="108.569" y="1402.651" fill="#000" font-family="Verdana" font-size="12" lengthAdjust="spacing" textLength="154.113">Playwright E2E 全流程验证</text><text x="108.569" y="1417.235" fill="#000" font-family="Verdana" font-size="12" lengthAdjust="spacing" textLength="241.711">(装扩展 → 填 baseUrl → 授权 → 翻译成功)</text><rect style="stroke:#1976d2;stroke-width:1" width="137.281" height="34.584" x="160.784" y="1449.755" fill="#FFF" rx="12.5" ry="12.5"/><text x="170.784" y="1471.819" fill="#000" font-family="Verdana" font-size="12" lengthAdjust="spacing" textLength="117.281">全部单测 + E2E 通过</text><rect style="stroke:#1976d2;stroke-width:1" width="188.885" height="34.584" x="134.982" y="1516.339" fill="#FFF" rx="12.5" ry="12.5"/><text x="144.982" y="1538.403" fill="#000" font-family="Verdana" font-size="12" lengthAdjust="spacing" textLength="168.885">v0.4 发布 + 关闭 issue #465</text><ellipse cx="229.424" cy="1581.923" fill="none" rx="11" ry="11" style="stroke:#000;stroke-width:1"/><ellipse cx="229.424" cy="1581.923" fill="#FFF" rx="6" ry="6" style="stroke:#000;stroke-width:1"/><line style="stroke:#000;stroke-width:1" x1="229.424" x2="229.424" y1="159.336" y2="179.336"/><polygon fill="#000" points="225.424 169.336 229.424 179.336 233.424 169.336 229.424 173.336" style="stroke:#000;stroke-width:1;stroke-linejoin:miter;stroke-miterlimit:10"/><line style="stroke:#000;stroke-width:1" x1="229.424" x2="229.424" y1="213.92" y2="233.92"/><polygon fill="#000" points="225.424 223.92 229.424 233.92 233.424 223.92 229.424 227.92" style="stroke:#000;stroke-width:1;stroke-linejoin:miter;stroke-miterlimit:10"/><line style="stroke:#000;stroke-width:1" x1="229.424" x2="229.424" y1="77.737" y2="124.752"/><polygon fill="#000" points="225.424 114.752 229.424 124.752 233.424 114.752 229.424 118.752" style="stroke:#000;stroke-width:1;stroke-linejoin:miter;stroke-miterlimit:10"/><line style="stroke:#000;stroke-width:1" x1="229.424" x2="229.424" y1="382.309" y2="429.515"/><polygon fill="#000" points="225.424 419.515 229.424 429.515 233.424 419.515 229.424 423.515" style="stroke:#000;stroke-width:1;stroke-linejoin:miter;stroke-miterlimit:10"/><line style="stroke:#000;stroke-width:1" x1="229.424" x2="229.424" y1="464.099" y2="484.099"/><polygon fill="#000" points="225.424 474.099 229.424 484.099 233.424 474.099 229.424 478.099" style="stroke:#000;stroke-width:1;stroke-linejoin:miter;stroke-miterlimit:10"/><line style="stroke:#000;stroke-width:1" x1="229.424" x2="229.424" y1="268.504" y2="347.725"/><polygon fill="#000" points="225.424 337.725 229.424 347.725 233.424 337.725 229.424 341.725" style="stroke:#000;stroke-width:1;stroke-linejoin:miter;stroke-miterlimit:10"/><line style="stroke:#000;stroke-width:1" x1="229.424" x2="229.424" y1="616.689" y2="648.096"/><polygon fill="#000" points="225.424 638.096 229.424 648.096 233.424 638.096 229.424 642.096" style="stroke:#000;stroke-width:1;stroke-linejoin:miter;stroke-miterlimit:10"/><line style="stroke:#000;stroke-width:1" x1="229.424" x2="229.424" y1="682.68" y2="702.68"/><polygon fill="#000" points="225.424 692.68 229.424 702.68 233.424 692.68 229.424 696.68" style="stroke:#000;stroke-width:1;stroke-linejoin:miter;stroke-miterlimit:10"/><line style="stroke:#000;stroke-width:1" x1="229.424" x2="229.424" y1="518.683" y2="582.105"/><polygon fill="#000" points="225.424 572.105 229.424 582.105 233.424 572.105 229.424 576.105" style="stroke:#000;stroke-width:1;stroke-linejoin:miter;stroke-miterlimit:10"/><line style="stroke:#000;stroke-width:1" x1="229.424" x2="229.424" y1="830.862" y2="850.862"/><polygon fill="#000" points="225.424 840.862 229.424 850.862 233.424 840.862 229.424 844.862" style="stroke:#000;stroke-width:1;stroke-linejoin:miter;stroke-miterlimit:10"/><line style="stroke:#000;stroke-width:1" x1="229.424" x2="229.424" y1="900.03" y2="920.03"/><polygon fill="#000" points="225.424 910.03 229.424 920.03 233.424 910.03 229.424 914.03" style="stroke:#000;stroke-width:1;stroke-linejoin:miter;stroke-miterlimit:10"/><line style="stroke:#000;stroke-width:1" x1="229.424" x2="229.424" y1="737.264" y2="796.278"/><polygon fill="#000" points="225.424 786.278 229.424 796.278 233.424 786.278 229.424 790.278" style="stroke:#000;stroke-width:1;stroke-linejoin:miter;stroke-miterlimit:10"/><line style="stroke:#000;stroke-width:1" x1="229.424" x2="229.424" y1="1048.213" y2="1068.213"/><polygon fill="#000" points="225.424 1058.213 229.424 1068.213 233.424 1058.213 229.424 1062.213" style="stroke:#000;stroke-width:1;stroke-linejoin:miter;stroke-miterlimit:10"/><line style="stroke:#000;stroke-width:1" x1="229.424" x2="229.424" y1="1102.797" y2="1122.797"/><polygon fill="#000" points="225.424 1112.797 229.424 1122.797 233.424 1112.797 229.424 1116.797" style="stroke:#000;stroke-width:1;stroke-linejoin:miter;stroke-miterlimit:10"/><line style="stroke:#000;stroke-width:1" x1="229.424" x2="229.424" y1="954.614" y2="1013.629"/><polygon fill="#000" points="225.424 1003.629 229.424 1013.629 233.424 1003.629 229.424 1007.629" style="stroke:#000;stroke-width:1;stroke-linejoin:miter;stroke-miterlimit:10"/><line style="stroke:#000;stroke-width:1" x1="229.424" x2="229.424" y1="1251.419" y2="1271.419"/><polygon fill="#000" points="225.424 1261.419 229.424 1271.419 233.424 1261.419 229.424 1265.419" style="stroke:#000;stroke-width:1;stroke-linejoin:miter;stroke-miterlimit:10"/><line style="stroke:#000;stroke-width:1" x1="229.424" x2="229.424" y1="1306.003" y2="1326.003"/><polygon fill="#000" points="225.424 1316.003 229.424 1326.003 233.424 1316.003 229.424 1320.003" style="stroke:#000;stroke-width:1;stroke-linejoin:miter;stroke-miterlimit:10"/><line style="stroke:#000;stroke-width:1" x1="229.424" x2="229.424" y1="1360.587" y2="1380.587"/><polygon fill="#000" points="225.424 1370.587 229.424 1380.587 233.424 1370.587 229.424 1374.587" style="stroke:#000;stroke-width:1;stroke-linejoin:miter;stroke-miterlimit:10"/><line style="stroke:#000;stroke-width:1" x1="229.424" x2="229.424" y1="1429.755" y2="1449.755"/><polygon fill="#000" points="225.424 1439.755 229.424 1449.755 233.424 1439.755 229.424 1443.755" style="stroke:#000;stroke-width:1;stroke-linejoin:miter;stroke-miterlimit:10"/><line style="stroke:#000;stroke-width:1" x1="229.424" x2="229.424" y1="1157.381" y2="1216.835"/><polygon fill="#000" points="225.424 1206.835 229.424 1216.835 233.424 1206.835 229.424 1210.835" style="stroke:#000;stroke-width:1;stroke-linejoin:miter;stroke-miterlimit:10"/><line style="stroke:#000;stroke-width:1" x1="229.424" x2="229.424" y1="1484.339" y2="1516.339"/><polygon fill="#000" points="225.424 1506.339 229.424 1516.339 233.424 1506.339 229.424 1510.339" style="stroke:#000;stroke-width:1;stroke-linejoin:miter;stroke-miterlimit:10"/><line style="stroke:#000;stroke-width:1" x1="229.424" x2="229.424" y1="1550.923" y2="1570.923"/><polygon fill="#000" points="225.424 1560.923 229.424 1570.923 233.424 1560.923 229.424 1564.923" style="stroke:#000;stroke-width:1;stroke-linejoin:miter;stroke-miterlimit:10"/><?plantuml-src VLLTJnj757tthxWDBqG8EwPWlgfA1kmsBoboWjI7I6XO3_4ewnrtPfOgYYA138Il1f86GaARbFIBqWRJbX22Gv7wKqfslFlKlz2PjIcxs7WjMRixzzuvvznxTZuGEPp7K30HiIA221F3ZQ4XI81xj0E28GCp6BDD4mlu-mrCN8bsWlosw3rTaO_tAzlJaGY_JQm2OYWFOyYuVOjHsyeEKfCoQ4adzIyGWGn19eYu0tSZ00FdmgjNIzg_z3fbMSo2Q_vwlBSxCTIXreS8obChEr2tQphTEzWP20ZNQKbtTQVZtP5x2hf0J4GY2fiYJgW5bpAw3iGrLSh8BMAr5v0Gc5bGEImvzu_awkub7tnV9ZMaemJcWiTiYuYOGHcEXREYl82DgE3GsWC6ufXVxjUvdsHIgMiwcpEZOPhWVfpprQfylGWziHxm9f-vn_VxDUewk1swL8voqLx0B4yuLsiSR47CvbZFfvoXZLy9mBMemA3mvKH4w-V-D5lPMFlttJF_wQHO1YF7Q1v7WvKCQWarK1oSfHdt-vbceGn_OIjWvoEfbSncSHPYwYw3ytH2tRixBxtryyKWENmLAkyEdODNyia-Z2DY0YrWIuLX9Ov6trZpElfXrUCziNXptJ_qnqHjXKYxGVEgUL72anCA01epSUjbq1RP-pdSX73ygU9oRTTv-LnLz6LleBhc-_vWtjjywnsjG1iuR_wG3-QK4-6VsKVAfpPk62Q_sGw4ZIEJdyK5i88iBSlVDhtYaREm9IUdv8iVgoQ_ICGm2qN0svYLSokGG_nJ9Ulm_wg65ErDjCNqNrDLE-lhCzlIQYviLCfVo-VJpjAQz_YfMog5bQrfs57L45hFG6JKY166iod6A6jWGMqL7iDwLNDn5hw32v9lMcrA46LLhE4e505-pKXrwQq-KwIIPD3dT1qR_dgjEoDNmrmgvUdtvNrLr2sj-jnE-wX6tFbzjVB3uSdaW-gRaybbkJJlFTe9ywfLs9zpzzxMjqMDHirt5xQh6Ps4tk4woU9XP64pDc2FwI6gDWL6FbVLyyWYuxwjbzVbnfvwa-f8XJdMvSl5OsTkzoBfGQx_fNZ3u8rac6cjx_LfrwWW1gufuUUSekg3Zv1fZjhCv1_xpg05JG-Pe_gZC1huAFXfmoQwywNlHSq2d9aj-NggihNeRI-vfQcRLglwSCdvNrHZ_6BEvg_gBEHuX9d-Sy21bUEoMtgedE8ilAWEeYhc5RTg3l5L2hgZppzmdUM7pa5HktxcJ-_9A-LSRcDewKnqzUj3Z1OY_m40?></g></svg>