<svg xmlns="http://www.w3.org/2000/svg" xmlns:xlink="http://www.w3.org/1999/xlink" contentStyleType="text/css" data-diagram-type="ACTIVITY" height="1607px" preserveAspectRatio="none" style="width:718px;height:1607px;background:#FAFAFA;" version="1.1" viewBox="0 0 718 1607" width="718px" zoomAndPan="magnify"><?plantuml 1.2026.6?><defs/><g><rect fill="#FAFAFA" height="1607" style="stroke:none;stroke-width:1;" width="718" x="0" y="0"/><g class="title" data-source-line="2"><text fill="#000000" font-family="Verdana" font-size="22" font-weight="700" lengthAdjust="spacing" textLength="436.1436" x="140.3342" y="37.1182">TDD 6 &#36718; tracer bullet &#183; v0.4 &#26435;&#38480;&#25910;&#31364;</text></g><ellipse cx="229.4243" cy="67.7373" fill="#FFFFFF" rx="10" ry="10" style="stroke:#000000;stroke-width:1;"/><rect fill="#FFFFFF" height="192.7666" style="stroke:#000000;stroke-width:1;" width="362.8809" x="47.9839" y="87.7373"/><path d="M275.77,87.7373 L275.77,97.752 L265.77,107.752 L47.9839,107.752" fill="none" style="stroke:#000000;stroke-width:1;"/><text fill="#000000" font-family="Verdana" font-size="14" lengthAdjust="spacing" textLength="217.7861" x="50.9839" y="102.8125">Round 1 &#183; origin-pattern &#32431;&#20989;&#25968;</text><rect fill="#FFFFFF" height="34.584" rx="12.5" ry="12.5" style="stroke:#1976D2;stroke-width:1;" width="342.8809" x="57.9839" y="124.752"/><text fill="#000000" font-family="Verdana" font-size="12" lengthAdjust="spacing" textLength="322.8809" x="67.9839" y="146.8164">RED &#183; tests/unit/core/origin-pattern.spec.ts (8 cases)</text><rect fill="#FFFFFF" height="34.584" rx="12.5" ry="12.5" style="stroke:#1976D2;stroke-width:1;" width="227.791" x="115.5288" y="179.3359"/><text fill="#000000" font-family="Verdana" font-size="12" lengthAdjust="spacing" textLength="207.791" x="125.5288" y="201.4004">GREEN &#183; src/core/origin-pattern.ts</text><rect fill="#FFFFFF" height="34.584" rx="12.5" ry="12.5" style="stroke:#1976D2;stroke-width:1;" width="97.1445" x="180.8521" y="233.9199"/><text fill="#000000" font-family="Verdana" font-size="12" lengthAdjust="spacing" textLength="77.1445" x="190.8521" y="255.9844">&#21333;&#27979; 8/8 &#36890;&#36807;</text><rect fill="#FFFFFF" height="240.1792" style="stroke:#000000;stroke-width:1;" width="669.3574" x="34.4546" y="290.5039"/><path d="M264.9683,290.5039 L264.9683,300.5186 L254.9683,310.5186 L34.4546,310.5186" fill="none" style="stroke:#000000;stroke-width:1;"/><text fill="#000000" font-family="Verdana" font-size="14" lengthAdjust="spacing" textLength="220.5137" x="37.4546" y="305.5791">Round 2 &#183; host-permissions util</text><path d="M434.394,320.5186 L434.394,361.0168 L414.394,365.0168 L434.394,369.0168 L434.394,409.5151 A0,0 0 0 0 434.394,409.5151 L693.812,409.5151 A0,0 0 0 0 693.812,409.5151 L693.812,330.5186 L683.812,320.5186 L434.394,320.5186 A0,0 0 0 0 434.394,320.5186" fill="#FFFFFF" style="stroke:#000000;stroke-width:1;"/><path d="M683.812,320.5186 L683.812,330.5186 L693.812,330.5186 L683.812,320.5186" fill="#FFFFFF" style="stroke:#000000;stroke-width:1;"/><text fill="#000000" font-family="Verdana" font-size="13" lengthAdjust="spacing" textLength="39" x="440.394" y="338.5884">&#35206;&#30422;&#65306;</text><text fill="#000000" font-family="Verdana" font-size="13" lengthAdjust="spacing" textLength="238.418" x="440.394" y="354.3877">&#12539; chrome.permissions.contains &#21253;&#35013;</text><text fill="#000000" font-family="Verdana" font-size="13" lengthAdjust="spacing" textLength="233.2891" x="440.394" y="370.187">&#12539; chrome.permissions.request &#21253;&#35013;</text><text fill="#000000" font-family="Verdana" font-size="13" lengthAdjust="spacing" textLength="197.2026" x="440.394" y="385.9863">&#12539; onAdded / onRemoved &#35746;&#38405;</text><text fill="#000000" font-family="Verdana" font-size="13" lengthAdjust="spacing" textLength="197.3486" x="440.394" y="401.7856">&#12539; chrome API &#32570;&#24109;&#26102; fail open</text><rect fill="#FFFFFF" height="34.584" rx="12.5" ry="12.5" style="stroke:#1976D2;stroke-width:1;" width="369.9395" x="44.4546" y="347.7249"/><text fill="#000000" font-family="Verdana" font-size="12" lengthAdjust="spacing" textLength="349.9395" x="54.4546" y="369.7893">RED &#183; tests/unit/core/host-permissions.spec.ts (10 cases)</text><rect fill="#FFFFFF" height="34.584" rx="12.5" ry="12.5" style="stroke:#1976D2;stroke-width:1;" width="247.2207" x="105.814" y="429.5151"/><text fill="#000000" font-family="Verdana" font-size="12" lengthAdjust="spacing" textLength="227.2207" x="115.814" y="451.5796">GREEN &#183; src/core/host-permissions.ts</text><rect fill="#FFFFFF" height="34.584" rx="12.5" ry="12.5" style="stroke:#1976D2;stroke-width:1;" width="112.4023" x="173.2231" y="484.0991"/><text fill="#000000" font-family="Verdana" font-size="12" lengthAdjust="spacing" textLength="92.4023" x="183.2231" y="506.1636">&#21333;&#27979; 18/18 &#36890;&#36807;</text><rect fill="#FFFFFF" height="208.5806" style="stroke:#000000;stroke-width:1;" width="555.3335" x="56.4565" y="540.6831"/><path d="M370.0952,540.6831 L370.0952,550.6978 L360.0952,560.6978 L56.4565,560.6978" fill="none" style="stroke:#000000;stroke-width:1;"/><text fill="#000000" font-family="Verdana" font-size="14" lengthAdjust="spacing" textLength="303.6387" x="59.4565" y="555.7583">Round 3 &#183; openai-compat.isAvailable() &#25910;&#32039;</text><path d="M385.5679,570.6978 L385.5679,595.3967 L365.5679,599.3967 L385.5679,603.3967 L385.5679,628.0957 A0,0 0 0 0 385.5679,628.0957 L601.79,628.0957 A0,0 0 0 0 601.79,628.0957 L601.79,580.6978 L591.79,570.6978 L385.5679,570.6978 A0,0 0 0 0 385.5679,570.6978" fill="#FFFFFF" style="stroke:#000000;stroke-width:1;"/><path d="M591.79,570.6978 L591.79,580.6978 L601.79,580.6978 L591.79,570.6978" fill="#FFFFFF" style="stroke:#000000;stroke-width:1;"/><text fill="#000000" font-family="Verdana" font-size="13" lengthAdjust="spacing" textLength="164.1313" x="391.5679" y="588.7676">&#12539; &#19977;&#39033;&#40784; + &#24050;&#25480;&#26435; &#8594; true</text><text fill="#000000" font-family="Verdana" font-size="13" lengthAdjust="spacing" textLength="167.9526" x="391.5679" y="604.5669">&#12539; &#19977;&#39033;&#40784; + &#26410;&#25480;&#26435; &#8594; false</text><text fill="#000000" font-family="Verdana" font-size="13" lengthAdjust="spacing" textLength="195.2222" x="391.5679" y="620.3662">&#12539; isAvailable &#27599;&#27425;&#37117;&#21160;&#24577;&#26597;&#26435;&#38480;</text><rect fill="#FFFFFF" height="34.584" rx="12.5" ry="12.5" style="stroke:#1976D2;stroke-width:1;" width="272.2871" x="93.2808" y="582.1047"/><text fill="#000000" font-family="Verdana" font-size="12" lengthAdjust="spacing" textLength="252.2871" x="103.2808" y="604.1692">RED &#183; openai-compat.spec.ts &#26032;&#22686; 3 cases</text><rect fill="#FFFFFF" height="34.584" rx="12.5" ry="12.5" style="stroke:#1976D2;stroke-width:1;" width="325.9355" x="66.4565" y="648.0957"/><text fill="#000000" font-family="Verdana" font-size="12" lengthAdjust="spacing" textLength="305.9355" x="76.4565" y="670.1602">GREEN &#183; openai-compat.ts &#38598;&#25104; hasHostPermission</text><rect fill="#FFFFFF" height="34.584" rx="12.5" ry="12.5" style="stroke:#1976D2;stroke-width:1;" width="147.3008" x="155.7739" y="702.6797"/><text fill="#000000" font-family="Verdana" font-size="12" lengthAdjust="spacing" textLength="127.3008" x="165.7739" y="724.7441">&#21333;&#27979; 196+/196+ &#36890;&#36807;</text><rect fill="#FFFFFF" height="207.3506" style="stroke:#000000;stroke-width:1;" width="362.8457" x="48.0015" y="759.2637"/><path d="M366.938,759.2637 L366.938,769.2783 L356.938,779.2783 L48.0015,779.2783" fill="none" style="stroke:#000000;stroke-width:1;"/><text fill="#000000" font-family="Verdana" font-size="14" lengthAdjust="spacing" textLength="308.9365" x="51.0015" y="774.3389">Round 4 &#183; openai-compat.run() &#25243;&#32467;&#26500;&#21270;&#38169;&#35823;</text><rect fill="#FFFFFF" height="34.584" rx="12.5" ry="12.5" style="stroke:#1976D2;stroke-width:1;" width="295.2559" x="81.7964" y="796.2783"/><text fill="#000000" font-family="Verdana" font-size="12" lengthAdjust="spacing" textLength="275.2559" x="91.7964" y="818.3428">RED &#183; &#26032;&#22686; 2 cases (PermissionRequiredError)</text><rect fill="#FFFFFF" height="49.168" rx="12.5" ry="12.5" style="stroke:#1976D2;stroke-width:1;" width="342.8457" x="58.0015" y="850.8623"/><text fill="#000000" font-family="Verdana" font-size="12" lengthAdjust="spacing" textLength="322.8457" x="68.0015" y="872.9268">GREEN &#183; src/utils/error.ts &#21152; PermissionRequiredError</text><text fill="#000000" font-family="Verdana" font-size="12" lengthAdjust="spacing" textLength="82.5117" x="68.0015" y="887.5107">+ engine &#25243;&#38169;</text><rect fill="#FFFFFF" height="34.584" rx="12.5" ry="12.5" style="stroke:#1976D2;stroke-width:1;" width="68" x="195.4243" y="920.0303"/><text fill="#000000" font-family="Verdana" font-size="12" lengthAdjust="spacing" textLength="48" x="205.4243" y="942.0947">&#21333;&#27979;&#36890;&#36807;</text><rect fill="#FFFFFF" height="192.7666" style="stroke:#000000;stroke-width:1;" width="416.4531" x="21.1978" y="976.6143"/><path d="M315.4224,976.6143 L315.4224,986.6289 L305.4224,996.6289 L21.1978,996.6289" fill="none" style="stroke:#000000;stroke-width:1;"/><text fill="#000000" font-family="Verdana" font-size="14" lengthAdjust="spacing" textLength="284.2246" x="24.1978" y="991.6895">Round 5 &#183; OpenAiCompatSection &#25480;&#26435; UI</text><rect fill="#FFFFFF" height="34.584" rx="12.5" ry="12.5" style="stroke:#1976D2;stroke-width:1;" width="262.7832" x="98.0327" y="1013.6289"/><text fill="#000000" font-family="Verdana" font-size="12" lengthAdjust="spacing" textLength="242.7832" x="108.0327" y="1035.6934">RED &#183; &#32452;&#20214;&#27979;&#35797; &#183; &#26410;&#25480;&#26435;&#26102;&#23637;&#31034;&#12302;&#25480;&#26435;&#12303;&#25353;&#38062;</text><rect fill="#FFFFFF" height="34.584" rx="12.5" ry="12.5" style="stroke:#1976D2;stroke-width:1;" width="396.4531" x="31.1978" y="1068.2129"/><text fill="#000000" font-family="Verdana" font-size="12" lengthAdjust="spacing" textLength="376.4531" x="41.1978" y="1090.2773">GREEN &#183; &#32452;&#20214;&#28040;&#36153; hasHostPermission + requestHostPermission</text><rect fill="#FFFFFF" height="34.584" rx="12.5" ry="12.5" style="stroke:#1976D2;stroke-width:1;" width="68" x="195.4243" y="1122.7969"/><text fill="#000000" font-family="Verdana" font-size="12" lengthAdjust="spacing" textLength="48" x="205.4243" y="1144.8613">&#21333;&#27979;&#36890;&#36807;</text><rect fill="#FFFFFF" height="316.5186" style="stroke:#000000;stroke-width:1;" width="436.8486" x="11" y="1179.8203"/><path d="M437.8486,1179.8203 L437.8486,1189.835 L427.8486,1199.835 L11,1199.835" fill="none" style="stroke:#000000;stroke-width:1;"/><text fill="#000000" font-family="Verdana" font-size="14" lengthAdjust="spacing" textLength="416.8486" x="14" y="1194.8955">Round 6 &#183; SidePanel/Bubble &#38169;&#35823; UX + manifest &#21464;&#26356; + E2E</text><rect fill="#FFFFFF" height="34.584" rx="12.5" ry="12.5" style="stroke:#1976D2;stroke-width:1;" width="401.0762" x="28.8862" y="1216.835"/><text fill="#000000" font-family="Verdana" font-size="12" lengthAdjust="spacing" textLength="381.0762" x="38.8862" y="1238.8994">RED &#183; SidePanel/Bubble &#25343;&#21040; PermissionRequiredError &#26174;&#31034; CTA</text><rect fill="#FFFFFF" height="34.584" rx="12.5" ry="12.5" style="stroke:#1976D2;stroke-width:1;" width="287.4688" x="85.6899" y="1271.4189"/><text fill="#000000" font-family="Verdana" font-size="12" lengthAdjust="spacing" textLength="267.4688" x="95.6899" y="1293.4834">GREEN &#183; &#26032;&#22686; PermissionRequiredNotice &#32452;&#20214;</text><rect fill="#FFFFFF" height="34.584" rx="12.5" ry="12.5" style="stroke:#1976D2;stroke-width:1;" width="326.4512" x="66.1987" y="1326.0029"/><text fill="#000000" font-family="Verdana" font-size="12" lengthAdjust="spacing" textLength="306.4512" x="76.1987" y="1348.0674">manifest: &lt;all_urls&gt; &#8594; optional_host_permissions</text><rect fill="#FFFFFF" height="49.168" rx="12.5" ry="12.5" style="stroke:#1976D2;stroke-width:1;" width="261.7109" x="98.5688" y="1380.5869"/><text fill="#000000" font-family="Verdana" font-size="12" lengthAdjust="spacing" textLength="154.1133" x="108.5688" y="1402.6514">Playwright E2E &#20840;&#27969;&#31243;&#39564;&#35777;</text><text fill="#000000" font-family="Verdana" font-size="12" lengthAdjust="spacing" textLength="241.7109" x="108.5688" y="1417.2354">(&#35013;&#25193;&#23637; &#8594; &#22635; baseUrl &#8594; &#25480;&#26435; &#8594; &#32763;&#35793;&#25104;&#21151;)</text><rect fill="#FFFFFF" height="34.584" rx="12.5" ry="12.5" style="stroke:#1976D2;stroke-width:1;" width="137.2813" x="160.7837" y="1449.7549"/><text fill="#000000" font-family="Verdana" font-size="12" lengthAdjust="spacing" textLength="117.2813" x="170.7837" y="1471.8193">&#20840;&#37096;&#21333;&#27979; + E2E &#36890;&#36807;</text><rect fill="#FFFFFF" height="34.584" rx="12.5" ry="12.5" style="stroke:#1976D2;stroke-width:1;" width="188.8848" x="134.9819" y="1516.3389"/><text fill="#000000" font-family="Verdana" font-size="12" lengthAdjust="spacing" textLength="168.8848" x="144.9819" y="1538.4033">v0.4 &#21457;&#24067; + &#20851;&#38381; issue #465</text><ellipse cx="229.4243" cy="1581.9229" fill="none" rx="11" ry="11" style="stroke:#000000;stroke-width:1;"/><ellipse cx="229.4243" cy="1581.9229" fill="#FFFFFF" rx="6" ry="6" style="stroke:#000000;stroke-width:1;"/><line style="stroke:#000000;stroke-width:1;" x1="229.4243" x2="229.4243" y1="159.3359" y2="179.3359"/><polygon fill="#000000" points="225.4243,169.3359,229.4243,179.3359,233.4243,169.3359,229.4243,173.3359" style="stroke:#000000;stroke-width:1;stroke-linejoin:miter;stroke-miterlimit:10;"/><line style="stroke:#000000;stroke-width:1;" x1="229.4243" x2="229.4243" y1="213.9199" y2="233.9199"/><polygon fill="#000000" points="225.4243,223.9199,229.4243,233.9199,233.4243,223.9199,229.4243,227.9199" style="stroke:#000000;stroke-width:1;stroke-linejoin:miter;stroke-miterlimit:10;"/><line style="stroke:#000000;stroke-width:1;" x1="229.4243" x2="229.4243" y1="77.7373" y2="124.752"/><polygon fill="#000000" points="225.4243,114.752,229.4243,124.752,233.4243,114.752,229.4243,118.752" style="stroke:#000000;stroke-width:1;stroke-linejoin:miter;stroke-miterlimit:10;"/><line style="stroke:#000000;stroke-width:1;" x1="229.4243" x2="229.4243" y1="382.3088" y2="429.5151"/><polygon fill="#000000" points="225.4243,419.5151,229.4243,429.5151,233.4243,419.5151,229.4243,423.5151" style="stroke:#000000;stroke-width:1;stroke-linejoin:miter;stroke-miterlimit:10;"/><line style="stroke:#000000;stroke-width:1;" x1="229.4243" x2="229.4243" y1="464.0991" y2="484.0991"/><polygon fill="#000000" points="225.4243,474.0991,229.4243,484.0991,233.4243,474.0991,229.4243,478.0991" style="stroke:#000000;stroke-width:1;stroke-linejoin:miter;stroke-miterlimit:10;"/><line style="stroke:#000000;stroke-width:1;" x1="229.4243" x2="229.4243" y1="268.5039" y2="347.7249"/><polygon fill="#000000" points="225.4243,337.7249,229.4243,347.7249,233.4243,337.7249,229.4243,341.7249" style="stroke:#000000;stroke-width:1;stroke-linejoin:miter;stroke-miterlimit:10;"/><line style="stroke:#000000;stroke-width:1;" x1="229.4243" x2="229.4243" y1="616.6887" y2="648.0957"/><polygon fill="#000000" points="225.4243,638.0957,229.4243,648.0957,233.4243,638.0957,229.4243,642.0957" style="stroke:#000000;stroke-width:1;stroke-linejoin:miter;stroke-miterlimit:10;"/><line style="stroke:#000000;stroke-width:1;" x1="229.4243" x2="229.4243" y1="682.6797" y2="702.6797"/><polygon fill="#000000" points="225.4243,692.6797,229.4243,702.6797,233.4243,692.6797,229.4243,696.6797" style="stroke:#000000;stroke-width:1;stroke-linejoin:miter;stroke-miterlimit:10;"/><line style="stroke:#000000;stroke-width:1;" x1="229.4243" x2="229.4243" y1="518.6831" y2="582.1047"/><polygon fill="#000000" points="225.4243,572.1047,229.4243,582.1047,233.4243,572.1047,229.4243,576.1047" style="stroke:#000000;stroke-width:1;stroke-linejoin:miter;stroke-miterlimit:10;"/><line style="stroke:#000000;stroke-width:1;" x1="229.4243" x2="229.4243" y1="830.8623" y2="850.8623"/><polygon fill="#000000" points="225.4243,840.8623,229.4243,850.8623,233.4243,840.8623,229.4243,844.8623" style="stroke:#000000;stroke-width:1;stroke-linejoin:miter;stroke-miterlimit:10;"/><line style="stroke:#000000;stroke-width:1;" x1="229.4243" x2="229.4243" y1="900.0303" y2="920.0303"/><polygon fill="#000000" points="225.4243,910.0303,229.4243,920.0303,233.4243,910.0303,229.4243,914.0303" style="stroke:#000000;stroke-width:1;stroke-linejoin:miter;stroke-miterlimit:10;"/><line style="stroke:#000000;stroke-width:1;" x1="229.4243" x2="229.4243" y1="737.2637" y2="796.2783"/><polygon fill="#000000" points="225.4243,786.2783,229.4243,796.2783,233.4243,786.2783,229.4243,790.2783" style="stroke:#000000;stroke-width:1;stroke-linejoin:miter;stroke-miterlimit:10;"/><line style="stroke:#000000;stroke-width:1;" x1="229.4243" x2="229.4243" y1="1048.2129" y2="1068.2129"/><polygon fill="#000000" points="225.4243,1058.2129,229.4243,1068.2129,233.4243,1058.2129,229.4243,1062.2129" style="stroke:#000000;stroke-width:1;stroke-linejoin:miter;stroke-miterlimit:10;"/><line style="stroke:#000000;stroke-width:1;" x1="229.4243" x2="229.4243" y1="1102.7969" y2="1122.7969"/><polygon fill="#000000" points="225.4243,1112.7969,229.4243,1122.7969,233.4243,1112.7969,229.4243,1116.7969" style="stroke:#000000;stroke-width:1;stroke-linejoin:miter;stroke-miterlimit:10;"/><line style="stroke:#000000;stroke-width:1;" x1="229.4243" x2="229.4243" y1="954.6143" y2="1013.6289"/><polygon fill="#000000" points="225.4243,1003.6289,229.4243,1013.6289,233.4243,1003.6289,229.4243,1007.6289" style="stroke:#000000;stroke-width:1;stroke-linejoin:miter;stroke-miterlimit:10;"/><line style="stroke:#000000;stroke-width:1;" x1="229.4243" x2="229.4243" y1="1251.4189" y2="1271.4189"/><polygon fill="#000000" points="225.4243,1261.4189,229.4243,1271.4189,233.4243,1261.4189,229.4243,1265.4189" style="stroke:#000000;stroke-width:1;stroke-linejoin:miter;stroke-miterlimit:10;"/><line style="stroke:#000000;stroke-width:1;" x1="229.4243" x2="229.4243" y1="1306.0029" y2="1326.0029"/><polygon fill="#000000" points="225.4243,1316.0029,229.4243,1326.0029,233.4243,1316.0029,229.4243,1320.0029" style="stroke:#000000;stroke-width:1;stroke-linejoin:miter;stroke-miterlimit:10;"/><line style="stroke:#000000;stroke-width:1;" x1="229.4243" x2="229.4243" y1="1360.5869" y2="1380.5869"/><polygon fill="#000000" points="225.4243,1370.5869,229.4243,1380.5869,233.4243,1370.5869,229.4243,1374.5869" style="stroke:#000000;stroke-width:1;stroke-linejoin:miter;stroke-miterlimit:10;"/><line style="stroke:#000000;stroke-width:1;" x1="229.4243" x2="229.4243" y1="1429.7549" y2="1449.7549"/><polygon fill="#000000" points="225.4243,1439.7549,229.4243,1449.7549,233.4243,1439.7549,229.4243,1443.7549" style="stroke:#000000;stroke-width:1;stroke-linejoin:miter;stroke-miterlimit:10;"/><line style="stroke:#000000;stroke-width:1;" x1="229.4243" x2="229.4243" y1="1157.3809" y2="1216.835"/><polygon fill="#000000" points="225.4243,1206.835,229.4243,1216.835,233.4243,1206.835,229.4243,1210.835" style="stroke:#000000;stroke-width:1;stroke-linejoin:miter;stroke-miterlimit:10;"/><line style="stroke:#000000;stroke-width:1;" x1="229.4243" x2="229.4243" y1="1484.3389" y2="1516.3389"/><polygon fill="#000000" points="225.4243,1506.3389,229.4243,1516.3389,233.4243,1506.3389,229.4243,1510.3389" style="stroke:#000000;stroke-width:1;stroke-linejoin:miter;stroke-miterlimit:10;"/><line style="stroke:#000000;stroke-width:1;" x1="229.4243" x2="229.4243" y1="1550.9229" y2="1570.9229"/><polygon fill="#000000" points="225.4243,1560.9229,229.4243,1570.9229,233.4243,1560.9229,229.4243,1564.9229" style="stroke:#000000;stroke-width:1;stroke-linejoin:miter;stroke-miterlimit:10;"/><?plantuml-src VLLTJnj757tthxWDBqG8EwPWlgfA1kmsBoboWjI7I6XO3_4ewnrtPfOgYYA138Il1f86GaARbFIBqWRJbX22Gv7wKqfslFlKlz2PjIcxs7WjMRixzzuvvznxTZuGEPp7K30HiIA221F3ZQ4XI81xj0E28GCp6BDD4mlu-mrCN8bsWlosw3rTaO_tAzlJaGY_JQm2OYWFOyYuVOjHsyeEKfCoQ4adzIyGWGn19eYu0tSZ00FdmgjNIzg_z3fbMSo2Q_vwlBSxCTIXreS8obChEr2tQphTEzWP20ZNQKbtTQVZtP5x2hf0J4GY2fiYJgW5bpAw3iGrLSh8BMAr5v0Gc5bGEImvzu_awkub7tnV9ZMaemJcWiTiYuYOGHcEXREYl82DgE3GsWC6ufXVxjUvdsHIgMiwcpEZOPhWVfpprQfylGWziHxm9f-vn_VxDUewk1swL8voqLx0B4yuLsiSR47CvbZFfvoXZLy9mBMemA3mvKH4w-V-D5lPMFlttJF_wQHO1YF7Q1v7WvKCQWarK1oSfHdt-vbceGn_OIjWvoEfbSncSHPYwYw3ytH2tRixBxtryyKWENmLAkyEdODNyia-Z2DY0YrWIuLX9Ov6trZpElfXrUCziNXptJ_qnqHjXKYxGVEgUL72anCA01epSUjbq1RP-pdSX73ygU9oRTTv-LnLz6LleBhc-_vWtjjywnsjG1iuR_wG3-QK4-6VsKVAfpPk62Q_sGw4ZIEJdyK5i88iBSlVDhtYaREm9IUdv8iVgoQ_ICGm2qN0svYLSokGG_nJ9Ulm_wg65ErDjCNqNrDLE-lhCzlIQYviLCfVo-VJpjAQz_YfMog5bQrfs57L45hFG6JKY166iod6A6jWGMqL7iDwLNDn5hw32v9lMcrA46LLhE4e505-pKXrwQq-KwIIPD3dT1qR_dgjEoDNmrmgvUdtvNrLr2sj-jnE-wX6tFbzjVB3uSdaW-gRaybbkJJlFTe9ywfLs9zpzzxMjqMDHirt5xQh6Ps4tk4woU9XP64pDc2FwI6gDWL6FbVLyyWYuxwjbzVbnfvwa-f8XJdMvSl5OsTkzoBfGQx_fNZ3u8rac6cjx_LfrwWW1gufuUUSekg3Zv1fZjhCv1_xpg05JG-Pe_gZC1huAFXfmoQwywNlHSq2d9aj-NggihNeRI-vfQcRLglwSCdvNrHZ_6BEvg_gBEHuX9d-Sy21bUEoMtgedE8ilAWEeYhc5RTg3l5L2hgZppzmdUM7pa5HktxcJ-_9A-LSRcDewKnqzUj3Z1OY_m40?></g></svg>